<?xml version="1.0" encoding="UTF-8" standalone="no"?>
<!-- Created with Inkscape (http://www.inkscape.org/) -->

<svg
   xmlns:dc="http://purl.org/dc/elements/1.1/"
   xmlns:cc="http://creativecommons.org/ns#"
   xmlns:rdf="http://www.w3.org/1999/02/22-rdf-syntax-ns#"
   xmlns:svg="http://www.w3.org/2000/svg"
   xmlns="http://www.w3.org/2000/svg"
   xmlns:sodipodi="http://sodipodi.sourceforge.net/DTD/sodipodi-0.dtd"
   xmlns:inkscape="http://www.inkscape.org/namespaces/inkscape"
   width="6.0854311mm"
   height="5.8688927mm"
   viewBox="0 0 21.562551 20.795289"
   id="svg2"
   version="1.1"
   inkscape:version="0.91 r13725"
   sodipodi:docname="facebook.svg">
  <defs
     id="defs4" />
  <sodipodi:namedview
     id="base"
     pagecolor="#ffffff"
     bordercolor="#666666"
     borderopacity="1.0"
     inkscape:pageopacity="0.0"
     inkscape:pageshadow="2"
     inkscape:zoom="0.98994949"
     inkscape:cx="-20.709814"
     inkscape:cy="-81.891573"
     inkscape:document-units="px"
     inkscape:current-layer="g3337"
     showgrid="false"
     inkscape:window-width="1366"
     inkscape:window-height="705"
     inkscape:window-x="-8"
     inkscape:window-y="-8"
     inkscape:window-maximized="1"
     fit-margin-top="0"
     fit-margin-left="0"
     fit-margin-right="0"
     fit-margin-bottom="0" />
  <metadata
     id="metadata7">
    <rdf:RDF>
      <cc:Work
         rdf:about="">
        <dc:format>image/svg+xml</dc:format>
        <dc:type
           rdf:resource="http://purl.org/dc/dcmitype/StillImage" />
        <dc:title></dc:title>
      </cc:Work>
    </rdf:RDF>
  </metadata>
  <g
     inkscape:label="Layer 1"
     inkscape:groupmode="layer"
     id="layer1"
     transform="translate(-334.67191,-303.87163)">
    <g
       id="g3337"
       transform="translate(73.766909,-85.354495)">
      <path
         id="path3349"
         d="m 275.034,396.409 c 0.056,0 0.098,0 0.141,0 1.574,0 3.148,-0.003 4.722,0.001 0.721,0.002 1.329,0.274 1.808,0.814 0.701,0.79 0.752,1.922 0.136,2.782 -0.017,0.024 -0.035,0.048 -0.051,0.071 1.065,1.067 0.832,2.81 -0.401,3.571 0.225,0.573 0.239,1.152 0.007,1.728 -0.231,0.573 -0.639,0.979 -1.187,1.228 0.015,0.203 0.043,0.398 0.041,0.593 -0.011,1.093 -0.855,2.044 -1.938,2.19 -0.102,0.014 -0.205,0.021 -0.308,0.021 -2.542,0.002 -5.085,0.005 -7.627,0.003 -0.862,-10e-4 -1.644,-0.248 -2.327,-0.784 -0.012,-0.01 -0.026,-0.018 -0.056,-0.037 0,0.176 0.002,0.337 0,0.498 -0.006,0.438 -0.302,0.808 -0.73,0.906 -0.08,0.018 -0.165,0.025 -0.247,0.026 -1.707,0.001 -3.414,0.002 -5.121,0.001 -0.589,0 -0.991,-0.404 -0.991,-0.991 0,-3.251 0,-6.502 0,-9.754 0,-0.559 0.41,-0.969 0.972,-0.969 1.697,-0.001 3.394,0 5.091,0 0.544,0 0.883,0.263 1.023,0.817 0.054,-0.069 0.106,-0.119 0.138,-0.179 0.802,-1.482 1.602,-2.965 2.402,-4.448 0.09,-0.167 0.181,-0.333 0.272,-0.499 0.124,-0.227 0.185,-0.47 0.167,-0.729 -0.035,-0.491 -0.072,-0.982 -0.109,-1.473 -0.047,-0.62 -0.096,-1.24 -0.141,-1.861 -0.002,-0.03 0.018,-0.07 0.041,-0.091 0.388,-0.353 0.836,-0.572 1.365,-0.612 0.528,-0.039 0.998,0.118 1.425,0.416 0.566,0.395 0.963,0.932 1.267,1.54 0.426,0.852 0.642,1.754 0.577,2.708 -0.028,0.417 -0.106,0.831 -0.166,1.245 -0.061,0.415 -0.128,0.832 -0.195,1.268 z"
         inkscape:connector-curvature="0"
         style="fill:#e4e3e2" />
    </g>
  </g>
</svg>
