<?xml version="1.0" encoding="UTF-8" standalone="no"?>
<!-- Created with Inkscape (http://www.inkscape.org/) -->

<svg
   xmlns:dc="http://purl.org/dc/elements/1.1/"
   xmlns:cc="http://creativecommons.org/ns#"
   xmlns:rdf="http://www.w3.org/1999/02/22-rdf-syntax-ns#"
   xmlns:svg="http://www.w3.org/2000/svg"
   xmlns="http://www.w3.org/2000/svg"
   xmlns:sodipodi="http://sodipodi.sourceforge.net/DTD/sodipodi-0.dtd"
   xmlns:inkscape="http://www.inkscape.org/namespaces/inkscape"
   width="5.8139882mm"
   height="5.8135471mm"
   viewBox="0 0 20.600746 20.599183"
   id="svg2"
   version="1.1"
   inkscape:version="0.91 r13725"
   sodipodi:docname="instagram.svg">
  <defs
     id="defs4" />
  <sodipodi:namedview
     id="base"
     pagecolor="#ffffff"
     bordercolor="#666666"
     borderopacity="1.0"
     inkscape:pageopacity="0.0"
     inkscape:pageshadow="2"
     inkscape:zoom="0.98994949"
     inkscape:cx="7.5794731"
     inkscape:cy="-39.970778"
     inkscape:document-units="px"
     inkscape:current-layer="g3337"
     showgrid="false"
     inkscape:window-width="1366"
     inkscape:window-height="705"
     inkscape:window-x="-8"
     inkscape:window-y="-8"
     inkscape:window-maximized="1"
     fit-margin-top="0"
     fit-margin-left="0"
     fit-margin-right="0"
     fit-margin-bottom="0" />
  <metadata
     id="metadata7">
    <rdf:RDF>
      <cc:Work
         rdf:about="">
        <dc:format>image/svg+xml</dc:format>
        <dc:type
           rdf:resource="http://purl.org/dc/dcmitype/StillImage" />
        <dc:title></dc:title>
      </cc:Work>
    </rdf:RDF>
  </metadata>
  <g
     inkscape:label="Layer 1"
     inkscape:groupmode="layer"
     id="layer1"
     transform="translate(-398.23821,-305.96788)">
    <g
       id="g3337"
       transform="translate(73.766909,-85.354495)">
      <g
         id="g3343">
        <path
           id="path3345"
           d="m 334.785,391.328 c 1.994,0 3.988,-0.015 5.982,0.004 2.076,0.02 3.925,1.648 4.238,3.702 0.04,0.266 0.06,0.537 0.06,0.805 0.004,3.856 -0.009,7.712 0.007,11.567 0.009,2.099 -1.409,3.9 -3.373,4.376 -0.365,0.088 -0.75,0.131 -1.126,0.132 -3.869,0.009 -7.739,0.009 -11.608,0.005 -2.148,-0.002 -3.91,-1.403 -4.386,-3.494 -0.073,-0.322 -0.102,-0.661 -0.102,-0.992 -0.007,-3.874 -0.007,-7.748 -0.003,-11.622 0.002,-2.141 1.402,-3.901 3.487,-4.377 0.34,-0.078 0.697,-0.103 1.047,-0.104 1.926,-0.01 3.851,-0.005 5.777,-0.005 l 0,0.003 z m -9.219,7.437 c 0,0.061 0,0.102 0,0.143 0,2.841 -0.002,5.681 0.004,8.522 0.001,0.259 0.023,0.523 0.081,0.775 0.36,1.574 1.691,2.622 3.33,2.623 3.861,0.003 7.721,0.002 11.582,-0.003 0.263,0 0.533,-0.022 0.789,-0.081 1.575,-0.359 2.622,-1.69 2.624,-3.329 0.003,-2.832 10e-4,-5.663 10e-4,-8.495 0,-0.048 -0.004,-0.097 -0.007,-0.156 -0.067,0 -0.121,0 -0.175,0 -1.487,0 -2.973,-0.001 -4.46,0.002 -0.104,0 -0.174,-0.029 -0.245,-0.109 -1.288,-1.453 -2.906,-2.124 -4.839,-1.964 -1.485,0.123 -2.73,0.772 -3.723,1.884 -0.125,0.14 -0.245,0.193 -0.429,0.192 -1.45,-0.007 -2.9,-0.004 -4.35,-0.004 -0.056,0 -0.11,0 -0.183,0 z m 14.666,-4.876 c -0.357,0 -0.713,-0.002 -1.07,0 -0.449,0.003 -0.761,0.312 -0.763,0.759 -0.003,0.704 -0.002,1.408 0,2.112 10e-4,0.449 0.307,0.759 0.758,0.762 0.704,0.004 1.408,0.004 2.112,0 0.454,-0.002 0.758,-0.304 0.761,-0.757 0.004,-0.704 0.004,-1.408 0,-2.112 -0.003,-0.459 -0.312,-0.761 -0.771,-0.763 -0.341,-0.003 -0.684,-10e-4 -1.027,-10e-4 z"
           inkscape:connector-curvature="0"
           style="fill:#e4e3e2" />
        <path
           id="path3347"
           d="m 334.772,397.323 c 2.613,0.001 4.741,2.13 4.738,4.741 -0.002,2.613 -2.131,4.741 -4.741,4.738 -2.614,-0.003 -4.74,-2.13 -4.738,-4.741 0.002,-2.613 2.129,-4.739 4.741,-4.738 z"
           inkscape:connector-curvature="0"
           style="fill:#e4e3e2" />
      </g>
    </g>
  </g>
</svg>
