<?xml version="1.0" encoding="UTF-8" standalone="no"?>
<!-- Created with Inkscape (http://www.inkscape.org/) -->

<svg
   xmlns:dc="http://purl.org/dc/elements/1.1/"
   xmlns:cc="http://creativecommons.org/ns#"
   xmlns:rdf="http://www.w3.org/1999/02/22-rdf-syntax-ns#"
   xmlns:svg="http://www.w3.org/2000/svg"
   xmlns="http://www.w3.org/2000/svg"
   xmlns:sodipodi="http://sodipodi.sourceforge.net/DTD/sodipodi-0.dtd"
   xmlns:inkscape="http://www.inkscape.org/namespaces/inkscape"
   width="83.616234mm"
   height="8.4031668mm"
   viewBox="0 0 296.27799 29.775"
   id="svg2"
   version="1.1"
   inkscape:version="0.91 r13725"
   sodipodi:docname="logotype.svg">
  <defs
     id="defs4" />
  <sodipodi:namedview
     id="base"
     pagecolor="#ffffff"
     bordercolor="#666666"
     borderopacity="1.0"
     inkscape:pageopacity="0.0"
     inkscape:pageshadow="2"
     inkscape:zoom="1.4"
     inkscape:cx="67.484245"
     inkscape:cy="24.254563"
     inkscape:document-units="px"
     inkscape:current-layer="g3429"
     showgrid="false"
     fit-margin-top="0"
     fit-margin-left="0"
     fit-margin-right="0"
     fit-margin-bottom="0"
     inkscape:window-width="1366"
     inkscape:window-height="705"
     inkscape:window-x="-8"
     inkscape:window-y="-8"
     inkscape:window-maximized="1" />
  <metadata
     id="metadata7">
    <rdf:RDF>
      <cc:Work
         rdf:about="">
        <dc:format>image/svg+xml</dc:format>
        <dc:type
           rdf:resource="http://purl.org/dc/dcmitype/StillImage" />
        <dc:title></dc:title>
      </cc:Work>
    </rdf:RDF>
  </metadata>
  <g
     inkscape:label="Layer 1"
     inkscape:groupmode="layer"
     id="layer1"
     transform="translate(-114.71814,-719.03963)">
    <g
       id="g3429"
       transform="translate(114.71814,718.86163)">
      <g
         id="g3337">
        <g
           id="g3339">
          <g
             id="g3341">
            <path
               id="path3343"
               d="m 62.46,15.26 2.717,2.717 2.717,-2.717 -2.717,-2.717 -2.717,2.717 z m 8.152,-2.717 -2.717,2.717 2.717,2.717 2.717,-2.717 -2.717,-2.717 z m -13.587,2.717 2.717,2.717 2.717,-2.717 -2.717,-2.717 -2.717,2.717 z m 8.152,8.152 2.717,-2.717 -2.717,-2.717 -2.717,2.717 2.717,2.717 z m 0,-16.304 -2.717,2.717 2.717,2.717 2.717,-2.717 -2.717,-2.717 z M 31.289,23.817 c 0,4.106 0.129,4.322 4.278,4.668 l 0,0.994 c -2.248,-0.043 -4.365,-0.13 -6.483,-0.173 -2.161,0.043 -4.365,0.13 -6.526,0.173 l 0,-0.994 c 4.149,-0.346 4.278,-0.562 4.278,-4.668 l 0,-18.843 -0.087,0 -4.926,12.058 c -1.815,4.149 -3.587,8.298 -5.403,12.446 l -0.43,0 -10.501,-24.504 -0.087,0 0,18.195 c 0,3.371 0.649,5.143 4.149,5.316 l 0,0.994 C 7.952,29.436 6.353,29.349 4.754,29.306 3.241,29.349 1.728,29.436 0.216,29.479 l 0,-0.994 c 3.285,0 3.889,-1.988 3.889,-3.933 l 0,-18.411 C 4.105,5.017 3.932,3.894 3.716,3.332 3.155,1.863 1.383,1.863 0,1.863 L 0,0.868 C 1.469,0.955 2.896,0.998 4.365,1.041 5.704,0.998 7.001,0.954 8.341,0.868 l 9.508,22.127 9.248,-22.127 c 1.34,0.087 2.723,0.13 4.063,0.173 1.383,-0.043 2.766,-0.087 4.278,-0.173 l 0,1.038 c -1.383,0 -3.068,0.043 -3.716,1.469 C 31.29,4.326 31.29,6.573 31.29,8.172 l 0,15.645 z M 49.617,15.26 c 0,-8.6 7.52,-14.91 15.861,-14.91 8.254,0 15.515,6.05 15.515,14.607 0,8.859 -6.958,14.996 -15.688,14.996 C 56.877,29.954 49.617,23.947 49.617,15.26 Z m 5.402,0 c 0,6.785 2.679,13.527 10.545,13.527 7.692,0 10.026,-7.217 10.026,-13.657 0,-6.482 -2.679,-13.613 -10.286,-13.613 -7.476,0 -10.285,7.347 -10.285,13.743 z M 119.2,25.935 c 1.383,1.599 2.031,2.204 4.235,2.55 l 0,0.994 c -1.297,-0.043 -2.593,-0.13 -3.889,-0.173 -1.08,0.043 -2.161,0.13 -3.241,0.173 l -2.031,-2.507 -7.174,-8.903 c -1.426,-1.642 -1.253,-1.901 -3.544,-1.901 l 0,5.1 c 0,1.383 0,4.581 0.389,5.748 0.519,1.513 2.291,1.47 3.674,1.47 l 0,0.994 c -1.988,-0.043 -4.019,-0.13 -6.093,-0.173 -2.161,0.043 -4.322,0.13 -6.483,0.173 l 0,-0.994 c 1.383,0 3.198,0 3.674,-1.47 0.389,-1.167 0.389,-4.365 0.389,-5.748 l 0,-12.188 c 0,-1.383 0,-4.581 -0.389,-5.748 C 98.241,1.819 96.426,1.863 95.043,1.863 l 0,-0.995 c 2.464,0.043 4.97,0.13 7.433,0.173 1.815,-0.043 3.674,-0.13 5.489,-0.173 4.927,0 9.897,1.124 9.897,7.131 0,4.668 -3.544,7.045 -7.822,7.434 l 9.16,10.502 z M 103.555,15.001 c 5.403,0 9.335,-0.13 9.335,-6.396 0,-3.803 -2.161,-6.483 -6.051,-6.483 -0.519,0 -2.42,-0.129 -2.809,0.043 -0.562,0.259 -0.476,1.08 -0.476,1.556 l 0,11.28 z m 36.436,5.099 c -0.649,1.642 -2.075,4.84 -2.075,6.526 0,1.859 2.204,1.729 3.501,1.859 l 0,0.994 c -1.599,-0.043 -3.155,-0.13 -4.754,-0.173 -1.513,0.043 -2.982,0.13 -4.494,0.173 l 0,-0.994 c 2.334,-0.26 3.284,-0.951 4.149,-3.069 1.21,-2.766 2.377,-5.489 3.587,-8.254 l 6.612,-16.984 1.469,0 8.73,21.955 c 0.519,1.124 1.47,3.76 2.248,4.754 0.95,1.253 2.247,1.426 3.716,1.599 l 0,0.994 c -2.031,-0.043 -4.105,-0.13 -6.137,-0.173 -2.075,0.043 -4.192,0.13 -6.266,0.173 l 0,-0.994 c 1.21,-0.043 3.327,0.043 3.327,-1.642 0,-1.081 -0.475,-2.377 -0.864,-3.371 l -1.685,-4.452 -10.675,0 -0.389,1.079 z m 10.502,-2.463 -4.754,-12.187 -4.797,12.187 9.551,0 z"
               inkscape:connector-curvature="0"
               style="fill:#010002" />
          </g>
          <g
             id="g3345">
            <g
               id="g3347">
              <polygon
                 id="polygon3349"
                 points="189.173,18.14 189.173,19.136 183.686,19.136 183.686,10.519 189.173,10.519 189.173,11.502 184.78,11.502 184.78,14.224 188.766,14.224 188.766,15.207 184.78,15.207 184.78,18.14 "
                 style="fill:#010002" />
            </g>
            <g
               id="g3351">
              <path
                 id="path3353"
                 d="m 205.368,16.891 c 0.323,0.954 1.137,1.431 2.189,1.431 1.123,0 1.909,-0.547 1.909,-1.502 0,-0.674 -0.379,-1.109 -1.375,-1.361 l -1.544,-0.407 c -1.193,-0.309 -2.063,-0.912 -2.063,-2.217 0,-1.459 1.207,-2.442 2.835,-2.442 1.782,0 2.835,0.912 3.158,2.273 l -1.109,0 c -0.266,-0.772 -0.912,-1.333 -2.049,-1.333 -1.024,0 -1.782,0.533 -1.782,1.417 0,0.73 0.477,1.081 1.375,1.319 l 1.474,0.379 c 1.375,0.351 2.147,1.095 2.147,2.315 0,1.558 -1.263,2.498 -2.975,2.498 -1.712,0 -2.989,-0.856 -3.312,-2.372 l 1.122,0 z"
                 inkscape:connector-curvature="0"
                 style="fill:#010002" />
            </g>
            <g
               id="g3355">
              <polygon
                 id="polygon3357"
                 points="225.352,10.519 232.467,10.519 232.467,11.502 229.463,11.502 229.463,19.136 228.355,19.136 228.355,11.502 225.352,11.502 "
                 style="fill:#010002" />
            </g>
            <g
               id="g3359">
              <path
                 id="path3361"
                 d="m 250.853,10.522 -1.043,0 -3.365,8.613 1.126,0 0.98,-2.596 3.55,0 0.999,2.596 1.12,0 -3.367,-8.613 z m -1.94,5.051 1.406,-3.677 1.399,3.677 -2.805,0 z"
                 inkscape:connector-curvature="0"
                 style="fill:#010002" />
            </g>
            <g
               id="g3363">
              <polygon
                 id="polygon3365"
                 points="268.196,10.519 275.312,10.519 275.312,11.502 272.308,11.502 272.308,19.136 271.2,19.136 271.2,11.502 268.196,11.502 "
                 style="fill:#010002" />
            </g>
            <g
               id="g3367">
              <polygon
                 id="polygon3369"
                 points="296.278,18.14 296.278,19.136 290.791,19.136 290.791,10.519 296.278,10.519 296.278,11.502 291.885,11.502 291.885,14.224 295.871,14.224 295.871,15.207 291.885,15.207 291.885,18.14 "
                 style="fill:#010002" />
            </g>
          </g>
        </g>
      </g>
    </g>
  </g>
</svg>
