<?xml version="1.0" encoding="UTF-8" standalone="no"?>
<!-- Created with Inkscape (http://www.inkscape.org/) -->

<svg
   xmlns:dc="http://purl.org/dc/elements/1.1/"
   xmlns:cc="http://creativecommons.org/ns#"
   xmlns:rdf="http://www.w3.org/1999/02/22-rdf-syntax-ns#"
   xmlns:svg="http://www.w3.org/2000/svg"
   xmlns="http://www.w3.org/2000/svg"
   xmlns:sodipodi="http://sodipodi.sourceforge.net/DTD/sodipodi-0.dtd"
   xmlns:inkscape="http://www.inkscape.org/namespaces/inkscape"
   width="38.528976mm"
   height="11.86688mm"
   viewBox="0 0 136.51999 42.048001"
   id="svg2"
   version="1.1"
   inkscape:version="0.91 r13725"
   sodipodi:docname="logotype-small.svg">
  <defs
     id="defs4" />
  <sodipodi:namedview
     id="base"
     pagecolor="#ffffff"
     bordercolor="#666666"
     borderopacity="1.0"
     inkscape:pageopacity="0.0"
     inkscape:pageshadow="2"
     inkscape:zoom="1.4"
     inkscape:cx="67.48423"
     inkscape:cy="24.254564"
     inkscape:document-units="px"
     inkscape:current-layer="g3429"
     showgrid="false"
     fit-margin-top="0"
     fit-margin-left="0"
     fit-margin-right="0"
     fit-margin-bottom="0"
     inkscape:window-width="1366"
     inkscape:window-height="705"
     inkscape:window-x="-8"
     inkscape:window-y="-8"
     inkscape:window-maximized="1" />
  <metadata
     id="metadata7">
    <rdf:RDF>
      <cc:Work
         rdf:about="">
        <dc:format>image/svg+xml</dc:format>
        <dc:type
           rdf:resource="http://purl.org/dc/dcmitype/StillImage" />
        <dc:title></dc:title>
      </cc:Work>
    </rdf:RDF>
  </metadata>
  <g
     inkscape:label="Layer 1"
     inkscape:groupmode="layer"
     id="layer1"
     transform="translate(-114.71816,-760.77963)">
    <g
       id="g3429"
       transform="translate(114.71814,718.86163)">
      <g
         id="g3371">
        <g
           id="g3373">
          <g
             id="g3375">
            <g
               id="g3377">
              <path
                 id="path3379"
                 d="m 52.416,54.575 2.28,2.28 2.28,-2.28 -2.28,-2.28 -2.28,2.28 z m 6.841,-2.281 -2.28,2.28 2.28,2.28 2.28,-2.28 -2.28,-2.28 z m -11.401,2.281 2.28,2.28 2.28,-2.28 -2.28,-2.28 -2.28,2.28 z m 6.841,6.841 2.28,-2.28 -2.28,-2.28 -2.28,2.28 2.28,2.28 z m 0,-13.682 -2.28,2.28 2.28,2.28 2.28,-2.28 -2.28,-2.28 z M 26.258,61.756 c 0,3.446 0.108,3.627 3.59,3.917 l 0,0.834 c -1.886,-0.036 -3.663,-0.109 -5.44,-0.145 -1.813,0.036 -3.663,0.109 -5.476,0.145 l 0,-0.834 c 3.481,-0.291 3.59,-0.472 3.59,-3.917 l 0,-15.813 -0.072,0 -4.134,10.119 c -1.524,3.481 -3.01,6.963 -4.534,10.445 l -0.363,0 -8.813,-20.564 -0.072,0 0,15.269 c 0,2.829 0.544,4.316 3.482,4.461 l 0,0.834 C 6.674,66.471 5.332,66.398 3.99,66.362 2.721,66.398 1.451,66.471 0.182,66.507 l 0,-0.834 c 2.756,0 3.264,-1.668 3.264,-3.301 l 0,-15.45 C 3.446,45.979 3.301,45.036 3.12,44.565 2.648,43.332 1.161,43.332 0,43.332 l 0,-0.834 c 1.233,0.073 2.43,0.109 3.663,0.145 C 4.787,42.606 5.875,42.57 7,42.497 l 7.979,18.569 7.761,-18.569 c 1.124,0.073 2.285,0.109 3.409,0.145 1.16,-0.036 2.321,-0.073 3.59,-0.145 l 0,0.871 c -1.16,0 -2.575,0.036 -3.119,1.233 -0.363,0.798 -0.363,2.684 -0.363,4.026 l 0,13.129 z m 15.381,-7.181 c 0,-7.217 6.311,-12.512 13.31,-12.512 6.927,0 13.02,5.077 13.02,12.259 0,7.435 -5.839,12.585 -13.165,12.585 C 47.731,66.906 41.639,61.864 41.639,54.575 Z m 4.533,0 c 0,5.694 2.249,11.352 8.85,11.352 6.455,0 8.414,-6.057 8.414,-11.461 0,-5.44 -2.249,-11.424 -8.632,-11.424 -6.274,0 -8.632,6.165 -8.632,11.533 z m 53.861,8.958 c 1.16,1.342 1.705,1.849 3.554,2.14 l 0,0.834 c -1.088,-0.036 -2.176,-0.109 -3.264,-0.145 -0.907,0.036 -1.814,0.109 -2.72,0.145 L 95.898,64.403 89.877,56.932 C 88.68,55.554 88.826,55.336 86.903,55.336 l 0,4.28 c 0,1.16 0,3.844 0.326,4.823 0.435,1.269 1.923,1.233 3.083,1.233 l 0,0.834 c -1.668,-0.036 -3.373,-0.109 -5.114,-0.145 -1.814,0.036 -3.627,0.109 -5.44,0.145 l 0,-0.834 c 1.16,0 2.684,0 3.083,-1.233 0.326,-0.979 0.326,-3.663 0.326,-4.823 l 0,-10.227 c 0,-1.161 0,-3.845 -0.326,-4.824 -0.399,-1.269 -1.923,-1.233 -3.083,-1.233 l 0,-0.834 c 2.067,0.036 4.171,0.109 6.238,0.145 1.524,-0.036 3.083,-0.109 4.606,-0.145 4.135,0 8.305,0.943 8.305,5.984 0,3.917 -2.974,5.912 -6.564,6.238 l 7.69,8.813 z m -13.13,-9.176 c 4.534,0 7.834,-0.109 7.834,-5.368 0,-3.192 -1.814,-5.44 -5.078,-5.44 -0.435,0 -2.031,-0.108 -2.357,0.036 -0.471,0.217 -0.399,0.907 -0.399,1.306 l 0,9.466 z m 30.577,4.28 c -0.544,1.378 -1.741,4.062 -1.741,5.476 0,1.56 1.849,1.451 2.938,1.56 l 0,0.834 c -1.342,-0.036 -2.648,-0.109 -3.989,-0.145 -1.269,0.036 -2.502,0.109 -3.772,0.145 l 0,-0.834 c 1.958,-0.218 2.756,-0.798 3.481,-2.575 1.016,-2.321 1.995,-4.606 3.01,-6.927 l 5.549,-14.253 1.233,0 7.326,18.424 c 0.435,0.943 1.233,3.155 1.886,3.989 0.798,1.051 1.886,1.197 3.119,1.342 l 0,0.834 c -1.705,-0.036 -3.445,-0.109 -5.15,-0.145 -1.741,0.036 -3.518,0.109 -5.259,0.145 l 0,-0.834 c 1.016,-0.036 2.792,0.036 2.792,-1.378 0,-0.907 -0.399,-1.995 -0.725,-2.829 l -1.414,-3.736 -8.958,0 -0.326,0.907 z m 8.813,-2.068 -3.989,-10.227 -4.026,10.227 8.015,0 z"
                 inkscape:connector-curvature="0"
                 style="fill:#010002" />
            </g>
          </g>
          <g
             id="g3381">
            <g
               id="g3383">
              <g
                 id="g3385">
                <g
                   id="g3387">
                  <polygon
                     id="polygon3389"
                     points="25.622,83.024 25.622,83.86 21.017,83.86 21.017,76.629 25.622,76.629 25.622,77.454 21.935,77.454 21.935,79.738 25.28,79.738 25.28,80.563 21.935,80.563 21.935,83.024 "
                     style="fill:#010002" />
                </g>
              </g>
              <g
                 id="g3391">
                <g
                   id="g3393">
                  <path
                     id="path3395"
                     d="m 39.212,81.976 c 0.271,0.801 0.954,1.201 1.837,1.201 0.942,0 1.602,-0.459 1.602,-1.26 0,-0.565 -0.318,-0.931 -1.154,-1.142 L 40.201,80.434 C 39.2,80.175 38.47,79.668 38.47,78.573 c 0,-1.225 1.013,-2.049 2.379,-2.049 1.496,0 2.379,0.765 2.65,1.908 l -0.931,0 c -0.224,-0.648 -0.765,-1.119 -1.719,-1.119 -0.86,0 -1.496,0.447 -1.496,1.189 0,0.612 0.4,0.907 1.154,1.107 l 1.237,0.318 c 1.154,0.295 1.802,0.919 1.802,1.943 0,1.307 -1.06,2.096 -2.497,2.096 -1.437,0 -2.508,-0.719 -2.779,-1.99 l 0.942,0 z"
                     inkscape:connector-curvature="0"
                     style="fill:#010002" />
                </g>
              </g>
              <g
                 id="g3397">
                <g
                   id="g3399">
                  <polygon
                     id="polygon3401"
                     points="55.983,76.629 61.954,76.629 61.954,77.454 59.433,77.454 59.433,83.86 58.503,83.86 58.503,77.454 55.983,77.454 "
                     style="fill:#010002" />
                </g>
              </g>
              <g
                 id="g3403">
                <g
                   id="g3405">
                  <g
                     id="g3407">
                    <path
                       id="path3409"
                       d="m 77.384,76.631 -0.876,0 -2.824,7.228 0.945,0 0.822,-2.178 2.979,0 0.838,2.178 0.94,0 -2.824,-7.228 z m -1.629,4.239 1.18,-3.086 1.174,3.086 -2.354,0 z"
                       inkscape:connector-curvature="0"
                       style="fill:#010002" />
                  </g>
                </g>
              </g>
              <g
                 id="g3411">
                <g
                   id="g3413">
                  <polygon
                     id="polygon3415"
                     points="91.938,76.629 97.909,76.629 97.909,77.454 95.389,77.454 95.389,83.86 94.458,83.86 94.458,77.454 91.938,77.454 "
                     style="fill:#010002" />
                </g>
              </g>
              <g
                 id="g3417">
                <g
                   id="g3419">
                  <polygon
                     id="polygon3421"
                     points="115.504,83.024 115.504,83.86 110.899,83.86 110.899,76.629 115.504,76.629 115.504,77.454 111.817,77.454 111.817,79.738 115.162,79.738 115.162,80.563 111.817,80.563 111.817,83.024 "
                     style="fill:#010002" />
                </g>
              </g>
            </g>
          </g>
        </g>
      </g>
    </g>
  </g>
</svg>
