<?xml version="1.0" encoding="UTF-8" standalone="no"?>
<!-- Created with Inkscape (http://www.inkscape.org/) -->

<svg
   xmlns:dc="http://purl.org/dc/elements/1.1/"
   xmlns:cc="http://creativecommons.org/ns#"
   xmlns:rdf="http://www.w3.org/1999/02/22-rdf-syntax-ns#"
   xmlns:svg="http://www.w3.org/2000/svg"
   xmlns="http://www.w3.org/2000/svg"
   xmlns:sodipodi="http://sodipodi.sourceforge.net/DTD/sodipodi-0.dtd"
   xmlns:inkscape="http://www.inkscape.org/namespaces/inkscape"
   width="23.64119mm"
   height="4.3275957mm"
   viewBox="0 0 83.767993 15.334001"
   id="svg2"
   version="1.1"
   inkscape:version="0.91 r13725"
   sodipodi:docname="mora.svg">
  <defs
     id="defs4" />
  <sodipodi:namedview
     id="base"
     pagecolor="#ffffff"
     bordercolor="#666666"
     borderopacity="1.0"
     inkscape:pageopacity="0.0"
     inkscape:pageshadow="2"
     inkscape:zoom="2.8"
     inkscape:cx="74.209606"
     inkscape:cy="27.098987"
     inkscape:document-units="px"
     inkscape:current-layer="g3429"
     showgrid="false"
     fit-margin-top="0"
     fit-margin-left="0"
     fit-margin-right="0"
     fit-margin-bottom="0"
     inkscape:window-width="1366"
     inkscape:window-height="705"
     inkscape:window-x="-8"
     inkscape:window-y="-8"
     inkscape:window-maximized="1" />
  <metadata
     id="metadata7">
    <rdf:RDF>
      <cc:Work
         rdf:about="">
        <dc:format>image/svg+xml</dc:format>
        <dc:type
           rdf:resource="http://purl.org/dc/dcmitype/StillImage" />
        <dc:title></dc:title>
      </cc:Work>
    </rdf:RDF>
  </metadata>
  <g
     inkscape:label="Layer 1"
     inkscape:groupmode="layer"
     id="layer1"
     transform="translate(-139.48928,-785.30506)">
    <g
       id="g3429"
       transform="translate(114.71814,718.86163)">
      <path
         id="path3494"
         d="m 56.933141,74.21043 1.399,1.399 1.399,-1.399 -1.399,-1.399 -1.399,1.399 z m 4.197,-1.4 -1.399,1.399 1.399,1.399 1.399,-1.399 -1.399,-1.399 z m -6.996,1.4 1.399,1.399 1.399,-1.399 -1.399,-1.399 -1.399,1.399 z m 4.198,4.197 1.399,-1.399 -1.399,-1.399 -1.399,1.399 1.399,1.399 z m 0,-8.395001 -1.399,1.399001 1.399,1.399 1.399,-1.399 -1.399,-1.399001 z m -17.45,8.604001 c 0,2.114 0.067,2.225 2.203,2.404 l 0,0.512 c -1.157,-0.022 -2.248,-0.067 -3.338,-0.089 -1.113,0.022 -2.248,0.067 -3.36,0.089 l 0,-0.512 c 2.136,-0.178 2.203,-0.289 2.203,-2.404 l 0,-9.703001 -0.045,0 -2.536,6.209001 c -0.935,2.136 -1.847,4.273 -2.782,6.409 l -0.223,0 -5.407,-12.618001 -0.045,0 0,9.369001 c 0,1.736 0.334,2.648 2.137,2.737 l 0,0.512 c -0.823,-0.022 -1.647,-0.067 -2.47,-0.089 -0.779,0.022 -1.558,0.067 -2.337,0.089 l 0,-0.512 c 1.691,0 2.003,-1.024 2.003,-2.025 l 0,-9.480001 c 0,-0.579 -0.089,-1.157 -0.2,-1.447 -0.29,-0.756 -1.202,-0.756 -1.914,-0.756 l 0,-0.512 c 0.757,0.045 1.491,0.067 2.248,0.089 0.69,-0.022 1.357,-0.045 2.047,-0.089 l 4.896,11.394001 4.762,-11.394001 c 0.69,0.045 1.402,0.067 2.092,0.089 0.712,-0.022 1.424,-0.045 2.203,-0.089 l 0,0.534 c -0.712,0 -1.58,0.022 -1.914,0.757 -0.223,0.49 -0.223,1.647 -0.223,2.47 l 0,8.056001 z m 9.438,-4.406 c 0,-4.428001 3.872,-7.677001 8.167,-7.677001 4.25,0 7.989,3.115 7.989,7.522001 0,4.562 -3.583,7.722 -8.078,7.722 -4.34,-10e-4 -8.078,-3.094 -8.078,-7.567 z m 2.781,0 c 0,3.494 1.38,6.965 5.43,6.965 3.961,0 5.163,-3.716 5.163,-7.032 0,-3.338001 -1.38,-7.010001 -5.296,-7.010001 -3.85,0 -5.297,3.783001 -5.297,7.077001 z m 33.049,5.496 c 0.712,0.823 1.046,1.135 2.181,1.313 l 0,0.512 c -0.668,-0.022 -1.335,-0.067 -2.003,-0.089 -0.556,0.022 -1.113,0.067 -1.669,0.089 l -1.046,-1.291 -3.694,-4.584 c -0.734,-0.846 -0.645,-0.979 -1.825,-0.979 l 0,2.626 c 0,0.712 0,2.359 0.2,2.96 0.267,0.779 1.18,0.757 1.892,0.757 l 0,0.512 c -1.024,-0.022 -2.07,-0.067 -3.138,-0.089 -1.113,0.022 -2.226,0.067 -3.338,0.089 l 0,-0.512 c 0.712,0 1.647,0 1.892,-0.757 0.2,-0.601 0.2,-2.248 0.2,-2.96 l 0,-6.276 c 0,-0.712001 0,-2.359001 -0.2,-2.960001 -0.245,-0.779 -1.18,-0.757 -1.892,-0.757 l 0,-0.511 c 1.269,0.022 2.559,0.067 3.828,0.089 0.935,-0.022 1.892,-0.067 2.826,-0.089 2.537,0 5.096,0.579 5.096,3.672 0,2.404001 -1.825,3.628001 -4.028,3.828001 l 4.718,5.407 z m -8.056,-5.63 c 2.782,0 4.807,-0.067 4.807,-3.294001 0,-1.959 -1.113,-3.338 -3.116,-3.338 -0.267,0 -1.246,-0.067 -1.447,0.022 -0.289,0.133 -0.245,0.556 -0.245,0.801 l 0,5.809001 z m 18.762,2.626 c -0.334,0.846 -1.068,2.492 -1.068,3.36 0,0.957 1.135,0.89 1.803,0.957 l 0,0.512 c -0.823,-0.022 -1.625,-0.067 -2.448,-0.089 -0.779,0.022 -1.535,0.067 -2.314,0.089 l 0,-0.512 c 1.202,-0.134 1.691,-0.49 2.136,-1.58 0.623,-1.424 1.224,-2.826 1.847,-4.25 l 3.403999,-8.746001 0.757,0 4.495,11.305001 c 0.267,0.579 0.757,1.936 1.157,2.448 0.489,0.645 1.157,0.734 1.914,0.823 l 0,0.512 c -1.046,-0.022 -2.114,-0.067 -3.16,-0.089 -1.068,0.022 -2.159,0.067 -3.227,0.089 l 0,-0.512 c 0.623,-0.022 1.713,0.022 1.713,-0.846 0,-0.557 -0.245,-1.224 -0.445,-1.736 l -0.868,-2.292 -5.496999,0 -0.199,0.557 z m 5.406999,-1.268 -2.447999,-6.276001 -2.47,6.276001 4.917999,0 z"
         inkscape:connector-curvature="0"
         style="fill:#e9e7e2" />
    </g>
  </g>
</svg>
