<?xml version="1.0" encoding="UTF-8" standalone="no"?>
<!-- Created with Inkscape (http://www.inkscape.org/) -->

<svg
   xmlns:dc="http://purl.org/dc/elements/1.1/"
   xmlns:cc="http://creativecommons.org/ns#"
   xmlns:rdf="http://www.w3.org/1999/02/22-rdf-syntax-ns#"
   xmlns:svg="http://www.w3.org/2000/svg"
   xmlns="http://www.w3.org/2000/svg"
   xmlns:sodipodi="http://sodipodi.sourceforge.net/DTD/sodipodi-0.dtd"
   xmlns:inkscape="http://www.inkscape.org/namespaces/inkscape"
   width="36.124443mm"
   height="36.124443mm"
   viewBox="0 0 128 127.99999"
   id="svg2"
   version="1.1"
   inkscape:version="0.91 r13725"
   sodipodi:docname="play.svg">
  <defs
     id="defs4" />
  <sodipodi:namedview
     id="base"
     pagecolor="#ffffff"
     bordercolor="#666666"
     borderopacity="1.0"
     inkscape:pageopacity="0.0"
     inkscape:pageshadow="2"
     inkscape:zoom="0.35"
     inkscape:cx="-141.28572"
     inkscape:cy="-143.42857"
     inkscape:document-units="px"
     inkscape:current-layer="layer1"
     showgrid="false"
     fit-margin-top="0"
     fit-margin-left="0"
     fit-margin-right="0"
     fit-margin-bottom="0"
     inkscape:window-width="1366"
     inkscape:window-height="705"
     inkscape:window-x="-8"
     inkscape:window-y="-8"
     inkscape:window-maximized="1" />
  <metadata
     id="metadata7">
    <rdf:RDF>
      <cc:Work
         rdf:about="">
        <dc:format>image/svg+xml</dc:format>
        <dc:type
           rdf:resource="http://purl.org/dc/dcmitype/StillImage" />
        <dc:title></dc:title>
      </cc:Work>
    </rdf:RDF>
  </metadata>
  <g
     inkscape:label="Layer 1"
     inkscape:groupmode="layer"
     id="layer1"
     transform="translate(-186.28573,-260.93365)">
    <g
       id="g3353"
       transform="translate(187.78573,262.43365)">
      <g
         id="g3355">
        <path
           id="path3357"
           d="m 62.5,126.5 c -35.29,0 -64,-28.71 -64,-64 0,-35.29 28.71,-64 64,-64 35.29,0 64,28.71 64,64 0,35.29 -28.71,64 -64,64 z m 0,-125 c -33.636,0 -61,27.364 -61,61 0,33.636 27.364,61 61,61 33.636,0 61,-27.364 61,-61 0,-33.636 -27.364,-61 -61,-61 z"
           inkscape:connector-curvature="0"
           style="fill:#ffffff" />
      </g>
      <g
         id="g3359">
        <path
           id="path3361"
           d="m 48.866,93.366 c -0.235,0 -0.471,-0.055 -0.688,-0.167 -0.499,-0.257 -0.813,-0.771 -0.813,-1.333 l 0,-58.732 c 0,-0.562 0.313,-1.076 0.813,-1.333 0.498,-0.257 1.1,-0.214 1.557,0.111 L 91.02,61.278 c 0.396,0.281 0.63,0.737 0.63,1.222 0,0.485 -0.235,0.941 -0.63,1.222 L 49.735,93.088 c -0.258,0.184 -0.563,0.278 -0.869,0.278 z m 1.5,-57.324 0,52.917 L 87.562,62.5 50.366,36.042 Z"
           inkscape:connector-curvature="0"
           style="fill:#ffffff" />
      </g>
    </g>
  </g>
</svg>
