<?xml version="1.0" encoding="utf-8"?>
<!-- Generator: Adobe Illustrator 17.0.0, SVG Export Plug-In . SVG Version: 6.00 Build 0)  -->
<!DOCTYPE svg PUBLIC "-//W3C//DTD SVG 1.1//EN" "http://www.w3.org/Graphics/SVG/1.1/DTD/svg11.dtd">
<svg version="1.1"
	 id="svg2" xmlns:dc="http://purl.org/dc/elements/1.1/" xmlns:svg="http://www.w3.org/2000/svg" xmlns:inkscape="http://www.inkscape.org/namespaces/inkscape" xmlns:cc="http://creativecommons.org/ns#" xmlns:rdf="http://www.w3.org/1999/02/22-rdf-syntax-ns#" xmlns:sodipodi="http://sodipodi.sourceforge.net/DTD/sodipodi-0.dtd" inkscape:version="0.91 r13725" sodipodi:docname="signature.svg"
	 xmlns="http://www.w3.org/2000/svg" xmlns:xlink="http://www.w3.org/1999/xlink" x="0px" y="0px" width="171.002px"
	 height="45.724px" viewBox="0 0 171.002 45.724" enable-background="new 0 0 171.002 45.724" xml:space="preserve">
<sodipodi:namedview  id="base" inkscape:cx="209.09169" inkscape:zoom="1.979899" showgrid="false" fit-margin-left="0" inkscape:cy="-67.232008" fit-margin-top="0" bordercolor="#666666" pagecolor="#ffffff" borderopacity="1.0" inkscape:window-x="-8" inkscape:window-y="-8" inkscape:window-maximized="1" inkscape:window-height="705" inkscape:pageshadow="2" inkscape:pageopacity="0.0" fit-margin-bottom="0" inkscape:current-layer="layer1" inkscape:document-units="px" fit-margin-right="0" inkscape:window-width="1366">
	</sodipodi:namedview>
<g id="layer1" transform="translate(-113.12376,-320.92733)" inkscape:label="Layer 1" inkscape:groupmode="layer">
	<g id="layer1-8" transform="translate(-4.8464193,-439.70543)" inkscape:label="Layer 1">
		<g id="g3429" transform="translate(114.71814,718.86163)">
			<g enable-background="new    ">
				<path fill="#E9E7E2" d="M18.994,53.293c0.009,0.182-0.459,0.371-1.406,0.565c-0.765,0.167-1.351,0.259-1.757,0.28
					c-0.569,0.028-1.141-0.013-1.716-0.126c-0.148,0.687-0.7,1.352-1.654,1.997c-0.956,0.644-1.808,0.985-2.559,1.023
					c-0.772,0.039-1.145-0.298-1.12-1.011C7.347,57.048,5.9,57.61,4.44,57.703c-0.661-0.19-1.005-0.56-1.033-1.108
					c-0.018-0.366,0.201-0.951,0.659-1.757c0.458-0.807,0.85-1.218,1.175-1.234c0.102-0.005,0.215,0.034,0.342,0.12
					s0.192,0.169,0.196,0.25c-0.955,1.249-1.448,2.169-1.479,2.76c0.433,0.101,0.832,0.141,1.197,0.123
					c0.75-0.038,1.458-0.334,2.122-0.892c0.371-0.321,0.824-0.827,1.358-1.52c0.421-0.545,0.712-0.822,0.875-0.83
					c0.142-0.007,0.277,0.059,0.406,0.194s0.197,0.275,0.204,0.417c0.001,0.021-0.126,0.225-0.381,0.614
					c-0.256,0.389-0.377,0.695-0.366,0.919c0.021,0.407,0.294,0.595,0.823,0.569c0.507-0.025,1.084-0.295,1.729-0.811
					c0.646-0.516,1.048-1.014,1.208-1.494c-0.777-0.084-1.171-0.229-1.182-0.435c-0.006-0.122,0.125-0.247,0.393-0.374
					s0.483-0.195,0.646-0.203c0.324-0.017,0.605,0.112,0.844,0.385c0.584,0.297,1.202,0.429,1.852,0.396
					c0.345-0.017,0.843-0.124,1.495-0.319c0.651-0.195,1.099-0.3,1.343-0.313C18.946,53.157,18.989,53.201,18.994,53.293z"/>
				<path fill="#E9E7E2" d="M23.979,54.675c-0.104,0.352-0.9,0.728-2.386,1.128c-1.287,0.329-2.244,0.51-2.873,0.542
					c-1.32,0.066-1.993-0.165-2.02-0.693c-0.016-0.325,0.388-0.996,1.211-2.014c0.823-1.019,1.368-1.535,1.632-1.548
					c0.365-0.018,0.565,0.125,0.601,0.428c-0.016,0.083-0.347,0.497-0.991,1.241c-0.644,0.745-0.957,1.299-0.938,1.666
					c0.018,0.365,0.382,0.53,1.093,0.494c0.629-0.032,1.528-0.27,2.696-0.716c1.168-0.445,1.742-0.667,1.722-0.667
					C23.89,54.527,23.974,54.574,23.979,54.675z M24.042,46.826c0.022,0.447-0.078,0.676-0.302,0.687
					c-0.223,0.011-0.509-0.117-0.858-0.384s-0.529-0.502-0.539-0.706c-0.02-0.386,0.254-0.593,0.823-0.621
					C23.714,45.774,24.006,46.116,24.042,46.826z"/>
				<path fill="#E9E7E2" d="M36.567,50.013c0.009,0.184-0.068,0.278-0.23,0.287c-0.325,0.016-0.834-0.004-1.529-0.061
					c-0.695-0.056-1.206-0.086-1.531-0.091c-1.096,0.055-2.734,0.087-4.911,0.095c-1.891,2.069-3.297,3.849-4.219,5.341
					c0.033,0.263,0.436,0.375,1.207,0.336c0.873-0.044,2.041-0.296,3.504-0.755c0.14-0.048,0.807-0.347,2-0.895
					c0.142-0.007,0.218,0.081,0.227,0.263c0.003,0.061-0.054,0.125-0.173,0.192c-0.711,0.423-1.971,0.862-3.78,1.319
					c-1.708,0.453-3.028,0.702-3.961,0.749c-0.244,0.012-0.374-0.143-0.39-0.468c-0.005-0.102,0.007-0.265,0.036-0.491
					c1.19-1.831,2.714-3.708,4.571-5.633c-0.489-0.016-0.979-0.032-1.468-0.049c-0.816-0.04-1.239-0.141-1.268-0.302
					c0.038-0.063,0.107-0.097,0.209-0.103c0.182-0.009,1.131,0.035,2.846,0.132c0.52-0.596,0.901-0.9,1.144-0.913
					c0.244-0.012,0.37,0.053,0.377,0.195c0.002,0.041-0.189,0.295-0.572,0.761c0.609-0.03,1.42-0.071,2.436-0.122
					c0.792-0.04,1.583-0.08,2.375-0.12c1.524-0.036,2.504,0.017,2.938,0.158C36.509,49.874,36.563,49.932,36.567,50.013z"/>
				<path fill="#E9E7E2" d="M42.028,42.656c0.032,0.63-0.502,1.546-1.602,2.751c-1.1,1.206-2.844,2.326-5.235,3.362
					c-1.626,1.649-2.69,3.178-3.188,4.587c0.058-0.044,0.611-0.367,1.661-0.969c0.871-0.491,1.367-0.74,1.489-0.747
					c0.588-0.03,0.894,0.178,0.916,0.621c0.018,0.364-0.245,0.998-0.79,1.905c-0.545,0.906-0.813,1.451-0.803,1.632
					c0.007,0.142,0.092,0.208,0.255,0.2c0.408-0.021,1.887-0.746,4.438-2.177c0.122-0.006,0.188,0.082,0.197,0.265
					c0.01,0.203-0.67,0.625-2.043,1.262c-1.372,0.639-2.292,0.97-2.758,0.994c-0.548,0.027-0.83-0.111-0.845-0.416
					c-0.012-0.244,0.177-0.721,0.569-1.432c0.392-0.712,0.58-1.22,0.564-1.524c-0.006-0.122-0.07-0.18-0.192-0.173
					c-0.674,0.034-1.386,0.344-2.134,0.931c-0.454,0.349-0.97,0.874-1.548,1.573c-0.485,0.554-0.767,0.833-0.849,0.836
					c-0.204,0.01-0.312-0.096-0.323-0.319c-0.024-0.488,1.091-2.437,3.348-5.847c1.139-1.686,2.335-3.262,3.587-4.73
					c1.927-2.234,3.38-3.375,4.357-3.424C41.689,41.788,41.999,42.067,42.028,42.656z M41.452,43.356
					c-0.018-0.365-0.271-0.536-0.758-0.511c-0.853,0.042-2.686,1.845-5.498,5.405c0.96-0.333,2.188-1.016,3.682-2.047
					C40.628,44.975,41.486,44.026,41.452,43.356z"/>
				<path fill="#E9E7E2" d="M57.584,43.584c0.047,0.934-1.077,2.68-3.37,5.237c-2.294,2.559-3.901,3.778-4.823,3.662
					c-0.18,0.478-0.262,0.868-0.246,1.172c0.034,0.67,0.497,0.982,1.39,0.937c0.75-0.038,1.774-0.343,3.068-0.917
					c1.294-0.573,1.911-0.86,1.85-0.856c0.162-0.008,0.25,0.1,0.261,0.324c0.014,0.284-0.82,0.681-2.504,1.194
					c-1.524,0.463-2.56,0.708-3.108,0.736c-1.218,0.061-1.855-0.477-1.913-1.614c-0.073-1.461,1.05-3.512,3.37-6.153
					c2.319-2.64,4.18-3.996,5.581-4.066C57.422,43.225,57.571,43.34,57.584,43.584z M56.271,44.199
					c-1.633,1.12-2.883,2.159-3.751,3.119c-1.04,1.172-1.876,2.567-2.507,4.187c1.729-1.247,2.979-2.287,3.751-3.119
					C54.786,47.255,55.622,45.86,56.271,44.199z"/>
				<path fill="#E9E7E2" d="M59.529,52.523c0.024,0.486-0.42,1.028-1.332,1.624c-0.833,0.551-1.516,0.84-2.046,0.866
					c-0.776,0.039-1.182-0.277-1.215-0.947c-0.031-0.608,0.287-1.291,0.95-2.047c0.664-0.755,1.301-1.148,1.91-1.179
					c0.306,0.005,0.642,0.121,1.01,0.346c0.367,0.225,0.556,0.43,0.565,0.612c0.004,0.082,0.03,0.203,0.079,0.363
					C59.498,52.321,59.525,52.442,59.529,52.523z M58.749,52.195c-0.019-0.385-0.26-0.567-0.722-0.544
					c-0.423,0.021-0.924,0.26-1.507,0.716c-0.582,0.458-0.862,0.888-0.841,1.295c0.022,0.447,0.345,0.653,0.968,0.622
					c0.482-0.024,0.959-0.256,1.432-0.698C58.549,53.147,58.774,52.683,58.749,52.195z"/>
				<path fill="#E9E7E2" d="M69.5,52.296c0.011,0.223-0.531,0.362-1.627,0.417c-1.401,0.07-2.36,0.026-2.876-0.13
					c-0.914,0.861-1.399,1.313-1.458,1.355c-0.647,0.502-1.224,0.765-1.731,0.791c-0.548,0.027-0.828-0.081-0.84-0.324
					c-0.004-0.081,0.197-0.447,0.601-1.1c0.405-0.651,0.602-1.078,0.592-1.281c-0.007-0.142-0.098-0.224-0.271-0.246
					c-0.175-0.022-0.272-0.042-0.293-0.062c0.147-0.313,0.456-0.44,0.927-0.383c0.08-0.023,0.151-0.038,0.211-0.041
					c0.142-0.007,0.217,0.07,0.226,0.233c0.026,0.507-0.271,1.275-0.892,2.304c0.762-0.222,1.551-0.729,2.366-1.523
					c-0.255-0.211-0.388-0.438-0.4-0.682c-0.022-0.446,0.352-0.689,1.123-0.729c0.731-0.037,1.105,0.108,1.121,0.432
					c0.01,0.204-0.28,0.503-0.871,0.9c0.905,0.198,1.825,0.274,2.759,0.227c0.162-0.008,0.384-0.054,0.665-0.14
					c0.28-0.085,0.482-0.131,0.604-0.137C69.474,52.175,69.496,52.215,69.5,52.296z M65.273,51.41
					c-0.003-0.062-0.065-0.089-0.188-0.083c-0.487,0.024-0.724,0.169-0.711,0.433c0.005,0.102,0.112,0.198,0.32,0.289
					C65.085,51.724,65.278,51.511,65.273,51.41z"/>
				<path fill="#E9E7E2" d="M75.44,52.028c0.007,0.142-0.039,0.246-0.137,0.312c-0.146,0.333-0.803,0.641-1.969,0.923
					c-0.904,0.228-1.671,0.358-2.301,0.39c-1.441,0.072-2.178-0.216-2.21-0.865c-0.037-0.73,0.363-1.484,1.199-2.259
					c0.818-0.713,1.594-1.087,2.325-1.124c0.385-0.019,0.592,0.245,0.62,0.793c0.021,0.426-0.067,0.705-0.263,0.837
					c-0.296,0.197-0.753,0.415-1.372,0.648c-0.46,0.166-0.919,0.332-1.379,0.497c-0.175,0.172-0.259,0.318-0.252,0.44
					c0.002,0.041,0.013,0.071,0.035,0.09c0.523,0.299,1.151,0.43,1.882,0.393c1.34-0.067,2.531-0.463,3.573-1.187
					c0.039-0.042,0.078-0.064,0.119-0.066C75.39,51.847,75.434,51.906,75.44,52.028z M72.096,50.486
					c-0.005-0.1-0.112-0.187-0.318-0.259c-0.825,0.205-1.331,0.657-1.519,1.359c0.337-0.16,0.687-0.31,1.045-0.45
					C71.841,50.886,72.105,50.669,72.096,50.486z"/>
			</g>
			<g>
			</g>
			<g enable-background="new    ">
				<path fill="#E9E7E2" d="M20.418,81.02c0.006,0.12-0.197,0.232-0.609,0.335c-0.412,0.102-0.709,0.158-0.892,0.167
					c-0.203,0.01-0.514,0.005-0.932-0.015s-0.729-0.024-0.932-0.014c-0.183,0.009-0.435,0.067-0.754,0.175
					c-0.321,0.107-0.552,0.166-0.694,0.173c-0.122,0.006-0.276-0.027-0.463-0.1c-0.187-0.071-0.283-0.159-0.288-0.261
					c-0.009-0.182,0.534-0.301,1.631-0.355c0.324-0.017,0.789-0.081,1.394-0.192c0.605-0.112,1.06-0.176,1.364-0.191
					C20.015,80.703,20.406,80.796,20.418,81.02z"/>
				<path fill="#E9E7E2" d="M52.883,73.984c0.021,0.406-0.459,0.775-1.439,1.109c-0.78,0.283-1.455,0.439-2.022,0.468
					c-0.366,0.019-1.52-0.065-3.462-0.253c-1.792,2.818-3.308,5.062-4.547,6.731c-2.249,3.023-4.694,4.601-7.333,4.733
					c-0.711,0.036-1.188-0.133-1.43-0.508c-0.51-0.809-0.786-1.65-0.83-2.522c-0.058-1.157,0.429-1.995,1.461-2.515
					c0.814-0.408,1.485-0.625,2.013-0.651c0.527-0.026,0.803,0.184,0.825,0.63c0.021,0.406-0.124,0.983-0.432,1.731
					c-0.345,0.83-0.68,1.256-1.004,1.271c-0.143,0.008-0.215-0.04-0.22-0.142c0.003,0.061,0.125-0.123,0.369-0.554
					c0.243-0.429,0.352-0.896,0.326-1.404c-0.021-0.405-0.183-0.603-0.487-0.587c-0.508,0.025-0.96,0.35-1.356,0.969
					c-0.396,0.621-0.581,1.194-0.554,1.723c0.027,0.548,0.235,1.031,0.623,1.45c0.387,0.417,0.844,0.613,1.372,0.587
					c0.548-0.027,1.196-0.305,1.943-0.83c3.378-2.43,6.322-5.813,8.832-10.153c-0.408-0.021-0.815-0.021-1.221,0
					c-0.528,0.026-1.044,0.084-1.549,0.17c-0.423,0.082-1.106,0.361-2.049,0.835c-0.942,0.477-1.425,0.714-1.444,0.716
					c-0.163,0.008-0.249-0.08-0.258-0.263c-0.005-0.102,0.081-0.229,0.256-0.38c1.386-1.168,2.77-1.787,4.15-1.856
					c0.69-0.034,1.499,0.046,2.424,0.244c0.933-1.675,1.698-3.475,2.293-5.396c-0.429,0.387-0.876,0.593-1.343,0.616
					c-0.488,0.024-1.26-0.257-2.317-0.846c-1.057-0.588-1.941-0.863-2.651-0.827c-1.218,0.062-2.275,0.705-3.17,1.929
					c-0.533,0.739-1.116,1.889-1.75,3.446c-0.509,1.207-0.866,1.815-1.068,1.825c-0.143,0.007-0.216-0.04-0.221-0.142
					c-0.004-0.081,0.031-0.205,0.104-0.372c0.737-1.93,1.56-3.579,2.468-4.947c1.38-2.085,2.731-3.159,4.051-3.226
					c0.67-0.034,1.444,0.272,2.321,0.92c0.877,0.648,1.529,0.962,1.955,0.94c0.508-0.025,1.013-0.296,1.517-0.809
					c0.311-0.302,0.511-0.865,0.602-1.694c0.09-0.829,0.281-1.393,0.571-1.693c0.445-0.449,0.902-0.686,1.369-0.709
					c0.285-0.015,0.548,0.074,0.792,0.266c0.244,0.19,0.372,0.419,0.385,0.683c0.042,0.833-1.793,4.211-5.504,10.138
					c0.946,0.197,1.754,0.278,2.424,0.244c0.629-0.031,1.448-0.24,2.456-0.628c1.009-0.385,1.554-0.581,1.635-0.585
					C52.837,73.864,52.879,73.903,52.883,73.984z M50.941,65.105c-0.009-0.184-0.157-0.266-0.441-0.252
					c-0.548,0.028-0.888,0.34-1.021,0.936c-0.014,0.531-0.038,1.051-0.074,1.562c0.307-0.361,0.604-0.733,0.89-1.113
					C50.736,65.685,50.951,65.308,50.941,65.105z"/>
				<path fill="#E9E7E2" d="M56.966,79.915c0.002,0.041-0.015,0.093-0.053,0.154c-0.054,0.146-0.181,0.254-0.381,0.325
					c-0.261,0.074-0.878,0.36-1.85,0.856c-0.972,0.497-1.5,0.747-1.58,0.751c-0.407,0.021-0.593-0.459-0.561-1.438
					c-1.141,1.198-2.279,1.824-3.416,1.881c-0.366,0.019-0.555-0.104-0.568-0.367c-0.01-0.202,0.087-0.503,0.291-0.9
					c0.407-0.814,1.055-1.493,1.943-2.037c0.888-0.542,1.799-0.837,2.734-0.884c0.182-0.01,0.419,0.05,0.711,0.178
					c0.291,0.128,0.441,0.272,0.449,0.435c0.009,0.184-0.495,0.696-1.51,1.541c-0.033,0.165-0.046,0.308-0.04,0.43
					c0.017,0.345,0.158,0.512,0.422,0.498c0.263-0.014,0.801-0.255,1.612-0.723c0.811-0.469,1.388-0.71,1.734-0.728
					C56.945,79.885,56.965,79.894,56.966,79.915z M53.356,79.15c-0.326-0.005-0.61,0-0.854,0.013
					c-0.792,0.039-1.392,0.24-1.802,0.601c-0.409,0.362-0.746,0.95-1.01,1.769c0.705-0.139,1.372-0.44,2-0.905
					C52.004,80.404,52.56,79.912,53.356,79.15z"/>
				<path fill="#E9E7E2" d="M67.674,68.813c0.042,0.853-0.498,1.856-1.62,3.013c-0.833,0.835-2.027,1.79-3.58,2.866
					c-1.044,0.703-2.087,1.407-3.13,2.111c-1.691,1.184-2.508,2.335-2.452,3.45c0.024,0.488,0.178,0.725,0.463,0.71
					c0.324-0.017,0.779-0.283,1.364-0.802c0.467-0.43,0.833-0.835,1.1-1.215c-0.045-0.079-0.155-0.231-0.329-0.457
					c-0.174-0.225-0.262-0.357-0.264-0.398c-0.006-0.121,0.149-0.272,0.466-0.452l0.395-0.05c0.567-0.048,0.86,0.111,0.879,0.48
					c0.01,0.205-0.041,0.51-0.152,0.916c-0.113,0.405-0.163,0.722-0.151,0.946c0.038,0.758,0.413,1.119,1.123,1.084
					c0.466-0.023,1.239-0.262,2.315-0.712c1.076-0.451,1.624-0.678,1.645-0.679c0.081-0.004,0.125,0.055,0.131,0.177
					c0.002,0.041-0.037,0.084-0.116,0.128c-0.415,0.245-1.118,0.54-2.107,0.884c-0.99,0.346-1.698,0.528-2.125,0.55
					c-0.832,0.042-1.292-0.393-1.378-1.305c-1.061,1.174-1.937,1.776-2.626,1.812c-0.346,0.018-0.641-0.085-0.886-0.307
					c-0.245-0.222-0.376-0.505-0.394-0.851c-0.052-1.035,0.898-2.772,2.852-5.21c1.703-2.162,3.19-4.15,4.463-5.964
					c1.196-1.709,2.027-2.575,2.495-2.599c0.324-0.016,0.671,0.2,1.04,0.649C67.462,68.041,67.656,68.448,67.674,68.813z
					 M66.918,68.943c-0.025-0.507-0.241-0.752-0.645-0.731c-0.465,0.023-1.378,0.822-2.737,2.396
					c-1.112,1.277-1.922,2.315-2.428,3.114c-0.544,0.862-1.016,1.567-1.414,2.117c1.604-0.753,3.079-1.661,4.424-2.726
					C66.046,71.572,66.98,70.181,66.918,68.943z"/>
				<path fill="#E9E7E2" d="M72.637,79.462c-0.105,0.352-0.9,0.728-2.386,1.128c-1.287,0.329-2.244,0.509-2.873,0.541
					c-1.32,0.066-1.993-0.164-2.019-0.692c-0.017-0.324,0.387-0.996,1.211-2.015c0.824-1.02,1.367-1.534,1.632-1.547
					c0.365-0.019,0.565,0.124,0.601,0.427c-0.016,0.083-0.346,0.497-0.99,1.241c-0.645,0.745-0.958,1.299-0.939,1.665
					c0.018,0.364,0.383,0.53,1.094,0.495c0.629-0.032,1.528-0.271,2.697-0.717c1.168-0.445,1.741-0.668,1.721-0.667
					C72.547,79.314,72.631,79.361,72.637,79.462z M72.699,71.613c0.022,0.447-0.078,0.676-0.301,0.687
					c-0.223,0.012-0.509-0.115-0.859-0.384c-0.349-0.267-0.528-0.502-0.539-0.705c-0.02-0.387,0.254-0.593,0.823-0.622
					C72.372,70.561,72.664,70.903,72.699,71.613z"/>
				<path fill="#E9E7E2" d="M80.445,78.735c0.002,0.041-0.015,0.093-0.053,0.154c-0.053,0.146-0.181,0.254-0.381,0.324
					c-0.261,0.075-0.877,0.36-1.85,0.856c-0.972,0.498-1.5,0.747-1.58,0.752c-0.407,0.02-0.593-0.459-0.561-1.438
					c-1.141,1.197-2.28,1.823-3.417,1.881c-0.365,0.019-0.555-0.104-0.568-0.368c-0.01-0.202,0.087-0.503,0.291-0.899
					c0.407-0.814,1.055-1.493,1.943-2.037c0.889-0.542,1.799-0.838,2.734-0.885c0.182-0.009,0.419,0.051,0.711,0.178
					c0.291,0.129,0.441,0.272,0.449,0.435c0.009,0.184-0.495,0.696-1.51,1.542c-0.033,0.165-0.046,0.308-0.04,0.43
					c0.017,0.345,0.158,0.511,0.422,0.497c0.264-0.013,0.801-0.254,1.612-0.722c0.811-0.469,1.388-0.71,1.734-0.728
					C80.423,78.706,80.444,78.714,80.445,78.735z M76.835,77.969c-0.326-0.004-0.61,0-0.854,0.013
					c-0.792,0.04-1.393,0.24-1.802,0.601c-0.408,0.362-0.746,0.951-1.01,1.77c0.705-0.139,1.372-0.44,2-0.906
					C75.483,79.224,76.039,78.732,76.835,77.969z"/>
				<path fill="#E9E7E2" d="M90.869,78.393c0.012,0.244-0.689,0.656-2.105,1.235c-1.336,0.556-2.196,0.844-2.582,0.863
					c-0.447,0.022-0.676-0.089-0.688-0.333c-0.011-0.223,0.162-0.629,0.52-1.217c0.356-0.586,0.53-0.972,0.521-1.155
					c-0.022-0.038-0.046-0.099-0.07-0.179c-0.085-0.077-0.2-0.112-0.341-0.105c-0.548,0.027-1.376,0.567-2.483,1.621
					c-1.107,1.053-1.722,1.582-1.844,1.588c-0.264,0.014-0.399-0.051-0.407-0.195c-0.006-0.123,0.603-0.965,1.827-2.527
					c-0.217-0.276-0.468-0.408-0.752-0.395c-0.569,0.028-1.225,0.545-1.968,1.549c-0.743,1.005-1.196,1.51-1.358,1.519
					c-0.142,0.007-0.218-0.069-0.226-0.231c-0.025-0.488,0.499-1.232,1.567-2.232c1.069-0.999,1.878-1.514,2.426-1.541
					c0.527-0.026,0.859,0.304,0.996,0.987c1.007-0.619,1.876-0.948,2.607-0.985c0.629-0.031,0.957,0.197,0.981,0.684
					c0.025,0.508-0.284,1.245-0.927,2.214c0.25,0.109,0.517,0.157,0.801,0.143c0.466-0.023,1.101-0.269,1.901-0.735
					c0.801-0.469,1.282-0.706,1.445-0.714C90.811,78.244,90.864,78.293,90.869,78.393z"/>
				<path fill="#E9E7E2" d="M94.573,77.994c0.024,0.486-0.419,1.028-1.332,1.624c-0.833,0.551-1.515,0.84-2.046,0.866
					c-0.776,0.039-1.182-0.277-1.216-0.947c-0.03-0.608,0.287-1.291,0.951-2.047c0.664-0.755,1.301-1.149,1.909-1.18
					c0.306,0.005,0.642,0.12,1.01,0.346c0.367,0.226,0.556,0.431,0.565,0.613c0.004,0.082,0.03,0.202,0.079,0.362
					C94.543,77.793,94.569,77.913,94.573,77.994z M93.794,77.667c-0.02-0.385-0.261-0.566-0.723-0.544
					c-0.423,0.021-0.925,0.26-1.507,0.717c-0.582,0.458-0.861,0.888-0.842,1.294c0.022,0.447,0.346,0.654,0.969,0.623
					c0.482-0.024,0.959-0.257,1.432-0.698C93.594,78.618,93.818,78.155,93.794,77.667z"/>
				<path fill="#E9E7E2" d="M117.325,64.791c0.007,0.122-0.368,0.873-1.124,2.255c-0.462,0.838-0.924,1.665-1.386,2.48
					c0.114-0.046,0.229-0.093,0.344-0.14c0.193-0.01,0.294,0.067,0.303,0.229c0.025,0.508-0.261,0.777-0.858,0.808
					c-0.1,0.005-0.189,0.003-0.27-0.005c-0.678,1.212-1.314,2.401-1.912,3.568c1.755,0.196,2.66,0.842,2.716,1.938
					c0.057,1.137-0.628,2.097-2.054,2.88c-1.229,0.674-2.442,0.998-3.645,0.978c-0.574,1.127-1.158,2.266-1.752,3.415
					c-0.833,1.648-1.328,2.742-1.483,3.278c-0.191,0.661-0.367,0.996-0.53,1.004c-0.304,0.016-0.463-0.119-0.478-0.403
					s1.227-2.728,3.722-7.331c-1.637-0.162-2.488-0.933-2.559-2.313c-0.063-1.259,0.407-2.637,1.41-4.132
					c0.416-0.631,1.578-0.995,3.487-1.091c0.467-0.023,0.696-0.116,0.688-0.279c-0.008-0.162-0.273-0.489-0.797-0.982
					s-0.79-0.84-0.801-1.044c-0.016-0.323,0.118-0.494,0.402-0.508c0.324-0.017,0.841,0.029,1.549,0.135
					c0.707,0.107,1.243,0.142,1.607,0.103l0.213-0.011l2.221-4.416c0.187-0.334,0.412-0.509,0.676-0.523
					C117.218,64.673,117.321,64.71,117.325,64.791z M112.593,72.661c-0.143,0.007-0.393-0.011-0.751-0.053
					c-0.359-0.044-0.629-0.061-0.812-0.051c-0.203,0.01-0.395,0.04-0.576,0.09c-0.701,0.219-1.199,0.428-1.494,0.627
					c-0.413,0.307-0.675,0.76-0.787,1.358c-0.109,0.66-0.303,1.478-0.579,2.452c-0.106,0.313-0.153,0.591-0.141,0.836
					c0.038,0.754,0.619,1.185,1.744,1.292c0.165-0.354,0.434-0.867,0.808-1.537c-0.457-0.181-0.698-0.544-0.727-1.092
					c-0.028-0.569,0.166-1.139,0.587-1.709c0.42-0.571,0.902-0.869,1.452-0.897l0.609-0.029
					C112.075,73.676,112.297,73.247,112.593,72.661z M114.071,75.974c-0.021-0.426-0.237-0.777-0.649-1.052
					c-0.411-0.274-0.842-0.42-1.291-0.438l-1.296,2.574c0.723,0.287,1.086,0.472,1.091,0.553c0.004,0.081-0.331,0.138-1.003,0.172
					c-0.225,0.011-0.388,0.008-0.491-0.01c-0.24,0.51-0.482,1-0.725,1.469l0.151-0.032c0.855-0.022,1.758-0.343,2.705-0.961
					C113.609,77.544,114.112,76.787,114.071,75.974z M111.639,74.505c-0.382,0.061-0.787,0.269-1.215,0.627
					s-0.633,0.721-0.614,1.087c0.016,0.306,0.22,0.519,0.612,0.642C110.882,75.941,111.287,75.156,111.639,74.505z M113.782,70.219
					c-0.343-0.083-0.643-0.119-0.9-0.106c-0.298,0.015-0.442,0.104-0.435,0.266c0.003,0.061,0.026,0.131,0.07,0.21
					c0.195,0.337,0.355,0.757,0.48,1.259C113.158,71.472,113.419,70.931,113.782,70.219z"/>
				<path fill="#E9E7E2" d="M148.922,59.29c-0.725,0.977-1.563,2.1-2.518,3.367c-2.259,3.249-3.871,5.588-4.837,7.02
					c-1.781,2.634-3.319,5.022-4.616,7.163c0.054,0.263,0.364,0.379,0.934,0.351c0.812-0.041,1.854-0.338,3.13-0.891
					c1.274-0.552,1.861-0.826,1.76-0.821c0.143-0.007,0.218,0.081,0.228,0.263c0.018,0.346-1.048,0.826-3.194,1.443
					c-1.946,0.565-3.254,0.865-3.924,0.899c-0.243,0.012-0.372-0.113-0.385-0.379c-0.007-0.121,0.012-0.317,0.057-0.586
					c0.679-1.07,1.558-2.408,2.637-4.011c-1.257,0.92-2.7,1.737-4.332,2.45c-1.852,0.807-3.437,1.243-4.755,1.31
					c-1.421,0.071-2.152-0.33-2.196-1.202c-0.063-1.26,1.199-3.256,3.79-5.992c2.337-2.478,5.009-4.8,8.015-6.966
					c3.082-2.251,5.272-3.409,6.572-3.474c0.426-0.021,0.779,0.118,1.059,0.419c0.279,0.302,0.431,0.666,0.452,1.092
					c0.9-1.104,1.443-1.66,1.626-1.669C148.747,59.06,148.914,59.131,148.922,59.29z M145.883,60.793
					c-0.024-0.489-0.382-0.715-1.072-0.68c-1.279,0.064-3.377,1.238-6.294,3.521c-2.077,1.611-3.998,3.285-5.763,5.022
					c-0.949,0.943-1.873,2.007-2.771,3.192c-1.241,1.63-1.844,2.778-1.811,3.448c0.027,0.548,0.519,0.799,1.476,0.751
					c1.282-0.064,3.046-0.681,5.293-1.848c2.147-1.103,3.706-2.164,4.676-3.186c0.096-0.106,0.552-0.769,1.368-1.986
					c0.657-0.993,1.495-2.23,2.512-3.712c-0.131-0.014-0.202-0.122-0.212-0.327c-0.003-0.061,0.439-0.582,1.326-1.564
					C145.497,62.442,145.922,61.565,145.883,60.793z"/>
				<path fill="#E9E7E2" d="M151.553,66.092c0.047,0.934-1.076,2.68-3.369,5.238c-2.294,2.558-3.901,3.777-4.822,3.661
					c-0.181,0.478-0.263,0.868-0.247,1.173c0.033,0.67,0.496,0.982,1.391,0.938c0.75-0.038,1.773-0.344,3.067-0.917
					c1.294-0.574,1.911-0.86,1.851-0.856c0.162-0.009,0.248,0.099,0.26,0.322c0.014,0.284-0.82,0.682-2.504,1.195
					c-1.523,0.462-2.56,0.708-3.108,0.735c-1.218,0.062-1.855-0.477-1.912-1.614c-0.074-1.461,1.05-3.512,3.369-6.152
					s4.181-3.996,5.581-4.066C151.393,65.735,151.541,65.849,151.553,66.092z M150.241,66.709c-1.634,1.119-2.884,2.159-3.751,3.119
					c-1.04,1.171-1.876,2.567-2.507,4.187c1.728-1.248,2.979-2.287,3.751-3.12C148.756,69.764,149.592,68.37,150.241,66.709z"/>
				<path fill="#E9E7E2" d="M155.524,75.235c0.007,0.143-0.039,0.247-0.137,0.313c-0.146,0.332-0.803,0.641-1.969,0.923
					c-0.904,0.229-1.672,0.358-2.301,0.39c-1.441,0.073-2.179-0.215-2.211-0.864c-0.037-0.73,0.363-1.484,1.199-2.259
					c0.819-0.714,1.594-1.087,2.325-1.124c0.385-0.02,0.592,0.245,0.619,0.793c0.021,0.426-0.066,0.706-0.263,0.838
					c-0.296,0.198-0.753,0.414-1.372,0.648c-0.46,0.166-0.919,0.332-1.379,0.496c-0.175,0.173-0.259,0.318-0.253,0.44
					c0.002,0.041,0.014,0.071,0.035,0.091c0.523,0.299,1.151,0.43,1.882,0.393c1.34-0.067,2.531-0.462,3.573-1.187
					c0.039-0.041,0.078-0.064,0.119-0.066C155.474,75.055,155.518,75.113,155.524,75.235z M152.18,73.694
					c-0.005-0.101-0.112-0.188-0.318-0.26c-0.824,0.205-1.331,0.657-1.52,1.359c0.338-0.16,0.687-0.309,1.046-0.449
					C151.925,74.093,152.189,73.876,152.18,73.694z"/>
				<path fill="#E9E7E2" d="M166.299,74.601c0.013,0.244-0.689,0.656-2.105,1.235c-1.336,0.556-2.196,0.844-2.582,0.863
					c-0.446,0.022-0.676-0.088-0.688-0.332c-0.011-0.223,0.162-0.629,0.52-1.217c0.356-0.587,0.53-0.973,0.521-1.156
					c-0.022-0.038-0.046-0.099-0.069-0.179c-0.086-0.077-0.2-0.112-0.342-0.104c-0.548,0.027-1.376,0.567-2.482,1.62
					c-1.107,1.054-1.722,1.583-1.844,1.589c-0.264,0.014-0.399-0.052-0.407-0.196c-0.006-0.123,0.603-0.964,1.827-2.527
					c-0.217-0.276-0.468-0.408-0.752-0.394c-0.569,0.028-1.225,0.545-1.968,1.549s-1.196,1.51-1.358,1.518
					c-0.142,0.008-0.218-0.069-0.226-0.231c-0.025-0.488,0.498-1.231,1.566-2.232c1.069-0.998,1.878-1.513,2.427-1.54
					c0.527-0.027,0.858,0.303,0.995,0.987c1.008-0.619,1.876-0.949,2.607-0.985c0.629-0.032,0.956,0.196,0.98,0.683
					c0.025,0.508-0.284,1.246-0.927,2.214c0.25,0.11,0.517,0.157,0.801,0.144c0.467-0.023,1.101-0.27,1.901-0.736
					c0.801-0.468,1.282-0.706,1.445-0.714C166.241,74.453,166.294,74.501,166.299,74.601z"/>
				<path fill="#E9E7E2" d="M173.902,74.037c0.003,0.041-0.015,0.093-0.053,0.154c-0.054,0.146-0.182,0.254-0.381,0.325
					c-0.261,0.074-0.878,0.36-1.85,0.856c-0.973,0.497-1.499,0.747-1.58,0.751c-0.406,0.021-0.593-0.459-0.561-1.438
					c-1.142,1.198-2.28,1.824-3.417,1.881c-0.365,0.019-0.555-0.104-0.567-0.367c-0.011-0.202,0.086-0.503,0.29-0.9
					c0.407-0.814,1.055-1.493,1.943-2.037c0.889-0.542,1.8-0.837,2.733-0.884c0.183-0.01,0.42,0.05,0.711,0.178
					c0.292,0.128,0.441,0.272,0.449,0.435c0.01,0.184-0.494,0.696-1.51,1.541c-0.032,0.165-0.045,0.308-0.039,0.43
					c0.018,0.345,0.157,0.512,0.422,0.498c0.264-0.014,0.801-0.255,1.612-0.723c0.811-0.468,1.389-0.71,1.734-0.728
					C173.881,74.007,173.901,74.016,173.902,74.037z M170.292,73.272c-0.325-0.005-0.61,0-0.854,0.013
					c-0.792,0.039-1.393,0.24-1.802,0.601c-0.409,0.362-0.746,0.95-1.01,1.769c0.705-0.138,1.371-0.439,1.999-0.905
					C168.941,74.526,169.496,74.035,170.292,73.272z"/>
			</g>
		</g>
	</g>
</g>
</svg>
