<?xml version="1.0" encoding="UTF-8" standalone="no"?>
<!-- Created with Inkscape (http://www.inkscape.org/) -->

<svg
   xmlns:dc="http://purl.org/dc/elements/1.1/"
   xmlns:cc="http://creativecommons.org/ns#"
   xmlns:rdf="http://www.w3.org/1999/02/22-rdf-syntax-ns#"
   xmlns:svg="http://www.w3.org/2000/svg"
   xmlns="http://www.w3.org/2000/svg"
   xmlns:sodipodi="http://sodipodi.sourceforge.net/DTD/sodipodi-0.dtd"
   xmlns:inkscape="http://www.inkscape.org/namespaces/inkscape"
   width="5.517386mm"
   height="4.9693384mm"
   viewBox="0 0 19.549793 17.607892"
   id="svg2"
   version="1.1"
   inkscape:version="0.91 r13725"
   sodipodi:docname="twitter.svg">
  <defs
     id="defs4" />
  <sodipodi:namedview
     id="base"
     pagecolor="#ffffff"
     bordercolor="#666666"
     borderopacity="1.0"
     inkscape:pageopacity="0.0"
     inkscape:pageshadow="2"
     inkscape:zoom="0.98994949"
     inkscape:cx="-82.726639"
     inkscape:cy="-81.50612"
     inkscape:document-units="px"
     inkscape:current-layer="g3337"
     showgrid="false"
     fit-margin-top="0"
     fit-margin-left="0"
     fit-margin-right="0"
     fit-margin-bottom="0"
     inkscape:window-width="1366"
     inkscape:window-height="705"
     inkscape:window-x="-8"
     inkscape:window-y="-8"
     inkscape:window-maximized="1" />
  <metadata
     id="metadata7">
    <rdf:RDF>
      <cc:Work
         rdf:about="">
        <dc:format>image/svg+xml</dc:format>
        <dc:type
           rdf:resource="http://purl.org/dc/dcmitype/StillImage" />
        <dc:title></dc:title>
      </cc:Work>
    </rdf:RDF>
  </metadata>
  <g
     inkscape:label="Layer 1"
     inkscape:groupmode="layer"
     id="layer1"
     transform="translate(-272.58962,-307.46598)">
    <g
       id="g3337"
       transform="translate(73.766909,-85.354495)">
      <g
         id="g3339">
        <path
           id="path3341"
           d="m 201.244,400.722 c -0.122,-0.511 -0.066,-0.984 0.195,-1.427 0.477,-0.808 1.488,-1.125 2.343,-0.737 0.669,0.304 1.361,0.545 2.073,0.728 0.031,0.008 0.062,0.014 0.103,0.024 -0.023,-0.164 -0.048,-0.32 -0.065,-0.477 -0.145,-1.315 0.048,-2.562 0.778,-3.688 0.731,-1.127 1.773,-1.839 3.071,-2.143 2.005,-0.47 3.811,-0.02 5.415,1.265 0.04,0.032 0.101,0.051 0.153,0.052 0.478,0.015 0.958,0.006 1.435,0.04 0.807,0.057 1.516,0.762 1.612,1.566 0.068,0.569 -0.088,1.064 -0.462,1.497 -0.165,0.191 -0.321,0.389 -0.474,0.59 -0.03,0.039 -0.045,0.106 -0.037,0.155 0.299,1.837 0.255,3.66 -0.276,5.451 -0.74,2.493 -2.234,4.396 -4.523,5.654 -0.994,0.546 -2.058,0.887 -3.18,1.049 -0.849,0.123 -1.701,0.15 -2.549,0.03 -3.362,-0.475 -5.81,-2.218 -7.275,-5.299 -0.337,-0.708 -0.563,-1.456 -0.722,-2.224 -0.21,-1.014 0.516,-2.033 1.542,-2.17 0.263,-0.035 0.522,-0.021 0.777,0.054 0.016,0.003 0.035,0.004 0.066,0.01 z m -0.579,1.759 c 0.099,0.465 0.224,0.906 0.39,1.335 0.61,1.583 1.609,2.851 3.078,3.716 1.693,0.997 3.517,1.266 5.436,0.89 1.461,-0.286 2.739,-0.945 3.802,-1.991 1.417,-1.395 2.107,-3.125 2.301,-5.077 0.063,-0.634 0.061,-1.269 0.018,-1.904 -0.038,-0.562 -0.117,-1.117 -0.301,-1.652 -0.019,-0.055 -0.011,-0.095 0.022,-0.14 0.356,-0.47 0.711,-0.942 1.066,-1.413 0.014,-0.019 0.027,-0.039 0.043,-0.062 -0.437,-0.057 -1.364,-0.037 -1.842,0.042 -0.097,0.016 -0.161,-0.003 -0.229,-0.082 -1.124,-1.292 -2.963,-1.809 -4.561,-1.273 -0.842,0.282 -1.482,0.813 -1.87,1.622 -0.359,0.75 -0.4,1.543 -0.267,2.349 0.082,0.5 0.184,0.998 0.21,1.506 0.016,0.325 0.011,0.65 -0.035,0.976 -0.023,0.003 -0.042,0.006 -0.06,0.008 -0.47,0.043 -0.938,0.016 -1.403,-0.051 -0.91,-0.131 -1.787,-0.388 -2.644,-0.717 -0.264,-0.101 -0.524,-0.211 -0.795,-0.321 0.259,1.221 0.742,2.332 1.519,3.333 -1.37,-0.138 -2.634,-0.554 -3.878,-1.094 z"
           inkscape:connector-curvature="0"
           style="fill:#e4e3e2" />
      </g>
    </g>
  </g>
</svg>
