<?xml version="1.0" encoding="UTF-8" standalone="no"?>
<!-- Created with Inkscape (http://www.inkscape.org/) -->

<svg
   xmlns:dc="http://purl.org/dc/elements/1.1/"
   xmlns:cc="http://creativecommons.org/ns#"
   xmlns:rdf="http://www.w3.org/1999/02/22-rdf-syntax-ns#"
   xmlns:svg="http://www.w3.org/2000/svg"
   xmlns="http://www.w3.org/2000/svg"
   xmlns:sodipodi="http://sodipodi.sourceforge.net/DTD/sodipodi-0.dtd"
   xmlns:inkscape="http://www.inkscape.org/namespaces/inkscape"
   width="722.6969mm"
   height="332.50659mm"
   viewBox="0 0 2560.7369 1178.173"
   id="svg2"
   version="1.1"
   inkscape:version="0.91 r13725"
   sodipodi:docname="mask1.svg">
  <defs
     id="defs4" />
  <sodipodi:namedview
     id="base"
     pagecolor="#ffffff"
     bordercolor="#666666"
     borderopacity="1.0"
     inkscape:pageopacity="0.0"
     inkscape:pageshadow="2"
     inkscape:zoom="0.175"
     inkscape:cx="934.70448"
     inkscape:cy="395.45627"
     inkscape:document-units="px"
     inkscape:current-layer="g3429"
     showgrid="false"
     fit-margin-top="0"
     fit-margin-left="0"
     fit-margin-right="0"
     fit-margin-bottom="0"
     inkscape:window-width="1366"
     inkscape:window-height="705"
     inkscape:window-x="-8"
     inkscape:window-y="-8"
     inkscape:window-maximized="1" />
  <metadata
     id="metadata7">
    <rdf:RDF>
      <cc:Work
         rdf:about="">
        <dc:format>image/svg+xml</dc:format>
        <dc:type
           rdf:resource="http://purl.org/dc/dcmitype/StillImage" />
        <dc:title></dc:title>
      </cc:Work>
    </rdf:RDF>
  </metadata>
  <g
     inkscape:label="Layer 1"
     inkscape:groupmode="layer"
     id="layer1"
     transform="translate(1047.1661,-195.25426)">
    <g
       id="g3429"
       transform="translate(114.71814,718.86163)">
      <path
         id="path3542"
         d="m 347.48879,485.00859 c 1.793,-1.946 5.431,-2.181 9.457,-2.065 1.589,1.22 -6.706,1.604 -9.457,2.065 z m 354.385,-41.73 c -6.912,0.814 -13.727,1.713 -19.973,3.146 7.815,0.021 14.785,-0.74 19.973,-3.146 z m -39.961,4.312 c 1.605,1.193 9.084,1.866 10.527,-0.091 -3.951,0.049 -11.266,-1.033 -10.527,0.091 z m -303.806,46.244 c 6.139,-0.087 16.459,-3.223 16.814,-3.118 -6.947,-2.059 -11.949,1.939 -16.814,3.118 z m 383.732,-54.868 c -0.056,0.607 -0.143,1.177 -1.041,0.998 l -7.369,0.064 c -4.596,0.019 -0.164,1.712 2.114,0.977 4.579,-0.682 11.913,1.187 14.727,-1.123 -3.178,-1.282 -3.675,-0.239 -8.431,-0.916 z m 414.25301,-56.12596 8.424,-0.073 -0.019,-1.982 c -2.637,0.839 -9.083,-1.845 -8.405,2.055 z m -563.63201,68.32796 c -3.925,-1.294 -11.918,1.151 -14.7,4.091 5.205,-1.087 10.913,-1.702 14.7,-4.091 z m -374.53,27.04 c 2.106,-1.057 11.342,-0.574 9.455,-2.064 -4.388,2.112 -5.767,-3.678 -7.378,-0.929 3.257,0.964 -2.267,1.652 -2.077,2.993 z m 550.473,-45.279 c 0.149,-0.143 0.365,-0.221 0.749,-0.146 10.203,-0.061 19.965,-0.533 28.404,-2.227 l -12.635,0.11 c -2.665,1.54 -14.591,-0.211 -16.518,2.263 z m -1809.90899,213.348 c 3.628,-3.417 14.704,0.797 15.909,-5.105 -3.959,3.081 -14.222,-0.302 -15.909,5.105 z m 87.28297,-13.854 c -5.965,3.97 -19.397,0.279 -25.243,4.366 6.956,-0.047 20.07,1.056 25.243,-4.366 z m -111.63797,14.102 c 2.251,3.617 18.777,1.038 21.87,-2.792 -7.413,0.801 -13.411,3.054 -21.87,2.792 z m -9.154,1.95 c 2.264,2.35 6.527,0.294 8,-1.874 -2.337,0.957 -7.698,-1.174 -8,1.874 z m -20.712,2.711 c -4.32,0.188 -7.943,1.091 -10.223,3.379 4.428,-0.08 8.407,-0.616 10.223,-3.379 z m 143.97997,-16.214 c 3.759,-3.299 14.022,0.084 15.923,-5.106 -6.431,1.993 -12.403,-1.192 -15.923,5.106 z m 93.885,-19.705 c -0.251,6.222 -7.33,-1.085 -8.983,4.658 3.925,1.042 7.544,0.827 11.463,-2.109 -1.525,0.083 -1.207,-2.291 -2.48,-2.549 z m -16.905,7.888 c 3.065,-0.222 6.859,0.3 6.764,-3.155 -3.062,0.222 -6.851,-0.302 -6.764,3.155 z m -21.952,1.44 c -9.631,3.984 -27.18,-0.146 -34.398,6.314 10.26,-2.516 24.475,-0.779 34.398,-6.314 z m -265.16497,-1148.20296 2560.737,0 0,887.921 c -5.619,3.313 -67.681,-0.033 -72.347,4.164 -9.842,-1.83 -23.328,2.921 -26.288,3.202 -51.002,4.81 -112.895,3.644 -166.25,9.371 7.458,0.939 6.101,7.518 17.956,5.789 -0.255,1.081 -2.091,0.691 -2.091,2.001 l 8.424,-0.073 c -4.504,3.963 10.603,3.805 14.795,5.819 -2.468,2.301 -9.449,0.44 -13.672,1.11 -0.583,3.561 6.283,-0.028 5.301,3.917 -3.962,-0.14 0.682,3.342 0.039,3.964 -2.399,2.586 -13.478,4.683 -10.539,-0.897 -7.177,0.239 -15.695,-0.76 -19.98,2.154 3.097,2.481 10.14,0.246 13.682,-0.119 -26.648,8.853 -71.042,2.263 -109.433,5.905 -39.56801,3.754 -73.23201,1.846 -107.33101,5.88896 2.415,2.693 11.216,-0.748 13.706,1.864 -15.586,0.863 -30.922,2.482 -46.288,3.374 -27.412,1.593 -53.329,0.755 -71.515,7.558 -3.302,0.499 -2.803,-2.644 -5.292,-2.926 -19.551,3.163 -53.004,1.099 -65.202,7.504 -8.25,0.533 -16.167,0.51 -27.357,1.227 -0.329,0.655 2.593,1.48 3.167,0.966 -3.488,3.127 -48.346,4.888 -64.155,6.503 -21.103,2.155 -51.681,7.583 -74.666,8.579 17.003,-5.594 45.062,-5.227 65.192,-8.497 -41.074,-0.782 -80.74,8.723 -116.756,10.926 -2.686,0.136 -3.665,1.848 -5.232,3.017 -21.594,-1.402 -56.781,2.894 -76.76,9.587 -6.217,-6.315 -18.572,1.2 -25.268,0.219 3.391,2.797 7.908,0.152 12.675,3.855 43.24,-3.636 94.327,-9.662 139.873,-15.089 10.987,-1.309 23.545,0.592 32.584,-5.239 1.065,2.649 6.637,0.975 8.453,2.9 -0.166,-2.612 7.99,-2.939 13.656,-3.093 -0.112,2.189 -4.46,0.461 -6.308,1.049 -0.309,2.629 5.888,-0.98 4.241,2.932 -68.262,3.038 -132.131,13.102 -191.42,19.503 1.928,1.741 -2.898,2.997 -7.329,4.029 -1.672,-3.51 3.568,-0.63 3.128,-2.999 -24.348,0.02 -52.867,5.717 -83.125,4.687 -34.197,-1.165 -71.576,9.999 -100.944,12.769 0.91,-3.087 7.355,-1.057 9.446,-3.054 -36.402,6.116 -84.126,7.263 -123.03,14.943 -4.443,0.814 -9.219,-1.242 -2.118,-0.971 6.233,-3.082 15.555,-3.306 20.989,-7.123 -12.062,0.124 -25.313,5.394 -37.838,6.276 13.68,-6.012 33.786,-6.092 48.315,-11.322 2.894,-1.006 1.025,1.965 1.072,1.973 3.091,0.589 13.666,-1.85 17.868,-3.127 1.241,-0.38 1.13,-2.564 2.077,-2.994 10.891,-4.958 28.454,-7.382 42.021,-9.284 24.365,-3.412 50.849,-8.008 76.773,-12.69 l -294.207,30.258 c 0.061,1.024 -0.164,1.755 -0.755,3.556 12.703,0.018 22.765,-7.088 35.465,-3.73 -6.928,1.942 -18.633,7.959 -24.333,4.45 -2.872,-0.927 -1.63,3.596 -3.661,3.777 -10.048,0.624 -27.72900035,5.155 -38.831,2.51 -65.385,17.692 -150.968,24.771 -225.54902,34.598 -1.249,0.15 -0.479,2.965 -1.897,2.89 -56.488,10.077 -124.318,17.359 -180.691,17.422 0.345,-1.344 2.195,-0.695 3.484,-0.782 -2.283,-3.979 -7.515,-3.652 -11.812,-3.775 -17.808,-0.508 -42.1,3.196 -58.403,-0.771 0.161,0.951 -12.612,3.739 -15.996,0.341 -0.2,0.059 -0.4,0.119 -0.6,0.178 -0.76,1.239 -2.372,1.352 -4.163,1.225 -49.642,14.509 -105.633,27.301 -153.838,33.663 0.178,-1.377 2.093,-0.974 3.36,-1.228 -2.751,-3.651 -7.902,-2.647 -12.179,-2.212 -17.728,1.808 -41.373,8.635 -58.032,6.816 0.286,0.956 -12.962,5.672 -16.204,2.07 -0.557,2.854 -4.513,2.228 -7.579,2.506 -0.617,-2.192 1.544,-1.532 1.519,-3.117 -4.756,2.174 -9.553,6.069 -19.442,5.296 -3.96,1.324 1.498,-3.865 -2.755,-2.832 -3.294,0.035 -0.261,0.837 -0.664,3.057 -7.915,1.893 -18.449,1.901 -26.425,3.738 0.404,-3.331 5.56,-1.776 3.843,-7.281 -0.594,5.551 -7.065,3.224 -4.693,7.337 -10.553,2.855 -17.829,-3.328 -25.756,0.685 2.947,3.209 3.722,-0.962 7.706,-0.505 -5.832,5.561 -16.262,1.151 -22.264,1.46 -2.845,1.261 2.404,0.159 1.049,2.942 -2.273,0.162 -4.914,-0.052 -5.929,1.395 -2.914,-6.178 -10.943,2.639 -18.045,0.177 -1.246,0.523 0.421,1.259 0.19,3.005 -2.26,0.837 -1.787,-1.959 -2.759,-2.836 -3.078,3.375 -10.09,6.248 -15.286,3.014 -61.417,14.205 -103.096,15.463 -173.31497,19.397 20.617,-5.879 50.211,-2.068 73.51297,-6.831 -56.98197,-1.028 -123.61497,7.019 -181.69697,7.066 l 0,-1156.87796 z M 34.48679,499.04359 c 4.312,-0.042 7.839,-1.125 10.517,-3.338 -4.057,0.381 -8.248,0.59 -10.517,3.338 z m 395.993,-32.595 c -3.669,0.539 -7.945,0.518 -10.507,2.074 4.322,0.066 8.595,0.087 10.507,-2.074 z m 261.872,-28.046 c -6.517,0.198 -12.844,0.569 -17.875,2.138 5.98,-0.056 16.865,-0.749 17.875,-2.138 z m 30.499,-3.236 c -10.561,2.49 -21.614,-0.61 -28.384,4.212 6.007,-1.786 20.965,-0.787 28.384,-4.212 z m 406.94801,-50.11696 c -19.328,-3.832 -41.542,0.677 -59.983,3.497 22.728,-0.607 40.715,-1.149 59.983,-3.497 z m -6.264,6.004 c 2.556,-1.836 -21.966,-1.307 -23.147,1.191 8.854,-0.293 12.499,-1.399 23.147,-1.191 z m 13.744,5.826 c -9.096,-0.956 -28.285,-2.742 -35.782,1.3 11.691,-1.444 28.985,2.091 35.782,-1.3 4.862,1.818 18.397,-0.154 19.99,-1.165 -6.34,1.362 -19.977,-3.853 -19.99,1.165 z m -5.32,-5.899 c 4.824,-0.593 10.881,2.848 14.732,-0.128 -2.582,-1.218 -15.788,-1.693 -14.732,0.128 z M -814.29423,598.25659 c -2.679,-1.092 -9.374,-0.327 -7.579,2.508 0.843,-1.917 5.533,0.183 7.579,-2.508 z m 161.769,-11.611 c -0.467,0.135 -4.359,-3.393 -4.219,1.28 7.68,-0.183 15.219,-4.404 4.219,-1.28 z m 241.699,-29.075 c -0.48,0.073 -3.909,-3.932 -4.342,0.722 7.641,0.815 15.636,-2.394 4.342,-0.722 z m 233.44002,-37.102 c -8.513,1.672 -18.891,0.873 -25.249,5.399 8.655,-1.126 17.841,-1.541 25.986,-3.34 -1.214,-0.628 -4.495,0.881 -4.224,-1.277 1.121,0.205 6.187,0.55 3.487,-0.782 z m 197.374,-23.367 c -10.3610004,-0.222 -6.36,5.08 0,0 l 0,0 z m -28.6030004,0.601 -61.4079996,6.316 c -33.321,5.515 -67.736,9.581 -98.86,18.008 43.212,-4.906 80.582,-13.628 121.253,-15.249 0.884,-5.515 -5.19,1.977 -4.108,-3.277 7.569,1.656 12.145,-3.357 18.961,-0.779 -3.266,-0.365 -6.24,-0.354 -7.826,1.5 11.49,-1.075 22.167,-3.229 31.9879996,-6.519 z"
         inkscape:connector-curvature="0"
         style="fill:#ffffff" />
    </g>
  </g>
</svg>
