<?xml version="1.0" encoding="UTF-8" standalone="no"?>
<!-- Created with Inkscape (http://www.inkscape.org/) -->

<svg
   xmlns:dc="http://purl.org/dc/elements/1.1/"
   xmlns:cc="http://creativecommons.org/ns#"
   xmlns:rdf="http://www.w3.org/1999/02/22-rdf-syntax-ns#"
   xmlns:svg="http://www.w3.org/2000/svg"
   xmlns="http://www.w3.org/2000/svg"
   xmlns:sodipodi="http://sodipodi.sourceforge.net/DTD/sodipodi-0.dtd"
   xmlns:inkscape="http://www.inkscape.org/namespaces/inkscape"
   width="254.3755mm"
   height="104.78126mm"
   viewBox="0 0 901.33047 371.27218"
   id="svg2"
   version="1.1"
   inkscape:version="0.91 r13725"
   sodipodi:docname="watermark.svg">
  <defs
     id="defs4" />
  <sodipodi:namedview
     id="base"
     pagecolor="#ffffff"
     bordercolor="#666666"
     borderopacity="1.0"
     inkscape:pageopacity="0.0"
     inkscape:pageshadow="2"
     inkscape:zoom="0.175"
     inkscape:cx="2071.0841"
     inkscape:cy="655.37808"
     inkscape:document-units="px"
     inkscape:current-layer="g3429"
     showgrid="false"
     fit-margin-top="0"
     fit-margin-left="0"
     fit-margin-right="0"
     fit-margin-bottom="0"
     inkscape:window-width="1366"
     inkscape:window-height="705"
     inkscape:window-x="-8"
     inkscape:window-y="-8"
     inkscape:window-maximized="1" />
  <metadata
     id="metadata7">
    <rdf:RDF>
      <cc:Work
         rdf:about="">
        <dc:format>image/svg+xml</dc:format>
        <dc:type
           rdf:resource="http://purl.org/dc/dcmitype/StillImage" />
        <dc:title></dc:title>
      </cc:Work>
    </rdf:RDF>
  </metadata>
  <g
     inkscape:label="Layer 1"
     inkscape:groupmode="layer"
     id="layer1"
     transform="translate(2183.5457,-1262.0768)">
    <g
       id="g3429"
       transform="translate(114.71814,718.86163)">
      <path
         id="path3552"
         d="m -2177.3597,779.76346 c 0.105,0.603 -0.067,1.399 -0.507,2.4 -0.532,2.253 -2.222,4.086 -5.053,5.504 -3.736,1.575 -12.361,6.935 -25.872,16.064 -13.516,9.138 -20.874,13.807 -22.067,14.015 -5.989,1.043 -9.63,-5.722 -10.932,-20.292 -14.739,19.834 -30.483,31.202 -47.235,34.118 -5.385,0.938 -8.417,-0.536 -9.094,-4.428 -0.52,-2.987 0.365,-7.614 2.671,-13.874 4.546,-12.814 12.92,-24.055 25.107,-33.733 12.188,-9.672 25.161,-15.71 38.926,-18.106 2.693,-0.469 6.312,-0.015 10.869,1.344 4.552,1.368 7.039,3.247 7.455,5.638 0.469,2.693 -6.064,11.229 -19.586,25.605 -0.185,2.503 -0.116,4.644 0.197,6.439 0.886,5.091 3.271,7.291 7.162,6.614 3.885,-0.676 11.416,-5.224 22.594,-13.644 11.171,-8.418 19.298,-13.07 24.389,-13.957 0.596,-0.103 0.924,-10e-4 0.976,0.293 z m -54.93,-4.763 c -4.842,0.532 -9.055,1.107 -12.646,1.732 -11.668,2.031 -20.209,6.098 -25.62,12.198 -5.411,6.101 -9.332,15.453 -11.76,28.065 10.206,-3.337 19.541,-9.023 28.01,-17.065 4.255,-3.862 11.593,-12.177 22.016,-24.93 z m 164.565,-151.657 c 2.397,13.765 -11.085,41.696 -40.435,83.798 -29.358,42.103 -50.97,63.134 -64.851,63.08 -1.795,7.407 -2.3,13.348 -1.518,17.835 1.719,9.873 9.156,13.665 22.325,11.372 11.065,-1.927 25.674,-8.321 43.824,-19.19 18.144,-10.861 26.769,-16.221 25.872,-16.064 2.391,-0.416 3.877,1.023 4.45,4.311 0.73,4.194 -10.925,11.613 -34.964,22.272 -21.751,9.646 -36.662,15.169 -44.741,16.575 -17.952,3.126 -28.386,-3.685 -31.303,-20.444 -3.751,-21.542 9.166,-53.999 38.765,-97.379 29.592,-43.372 54.712,-66.863 75.357,-70.457 4.185,-0.73 6.594,0.7 7.219,4.291 z m -18.34,11.516 c -22.181,19.583 -38.825,37.278 -49.945,53.086 -13.291,19.271 -23.144,41.484 -29.55,66.644 23.356,-21.638 40.006,-39.333 49.944,-53.086 13.095,-18.616 22.948,-40.828 29.551,-66.644 z m 121.024,113.486 c 0.209,1.199 -0.533,2.253 -2.224,3.162 -42.054,18.73 -74.75,30.123 -98.087,34.186 -13.765,2.397 -21.217,0.306 -22.364,-6.279 -1.563,-8.976 4.895,-21.891 19.379,-38.748 14.477,-16.855 26.66,-26.143 36.534,-27.862 8.078,-1.406 12.717,1.333 13.915,8.213 1.094,6.283 -2.858,15.453 -11.859,27.497 l -1.931,2.186 -0.761,-1.717 c -0.156,-0.898 1.17,-3.903 3.979,-9.016 1.818,-3.705 2.211,-8.549 1.168,-14.538 -0.469,-2.693 -1.306,-3.934 -2.498,-3.727 -3.892,0.678 -11.902,8.242 -24.027,22.679 -12.13,14.445 -17.801,23.907 -17.02,28.395 0.782,4.488 6.557,5.794 17.328,3.919 10.168,-1.77 24.863,-6.793 44.078,-15.073 19.209,-8.272 33.454,-13.223 42.731,-14.838 0.596,-0.103 1.149,0.422 1.659,1.561 z m 145.163,-194.048 c 1.615,9.277 -4.633,23.854 -18.744,43.723 -14.111,19.876 -37.946,39.668 -71.506,59.383 -21.12,27.418 -34.104,52.026 -38.935,73.826 0.794,-0.752 8.411,-6.551 22.866,-17.391 12.017,-8.869 18.925,-13.468 20.72,-13.78 8.674,-1.51 13.584,1.002 14.722,7.537 0.932,5.35 -1.818,15.243 -8.243,29.678 -6.431,14.435 -9.407,22.988 -8.942,25.659 0.363,2.083 1.742,2.912 4.155,2.492 6.017,-1.047 26.628,-14.498 61.834,-40.359 1.802,-0.314 2.941,0.875 3.41,3.568 0.521,2.994 -8.811,10.478 -27.997,22.446 -19.186,11.974 -32.222,18.557 -39.101,19.755 -8.078,1.406 -12.508,-0.134 -13.289,-4.622 -0.625,-3.59 1.319,-11.016 5.831,-22.285 4.513,-11.262 6.377,-19.144 5.596,-23.632 -0.313,-1.795 -1.374,-2.535 -3.176,-2.222 -9.937,1.73 -19.92,7.63 -29.944,17.698 -6.094,5.996 -12.791,14.712 -20.097,26.157 -6.176,9.095 -9.855,13.738 -11.061,13.948 -3.009,0.524 -4.802,-0.855 -5.376,-4.151 -1.25,-7.181 11.745,-38.112 38.999,-92.796 13.827,-27.066 28.69,-52.622 44.59,-76.661 24.515,-36.636 43.975,-56.208 58.378,-58.716 8.696,-1.514 13.799,2.07 15.31,10.745 z m -7.257,11.436 c -0.938,-5.386 -4.997,-7.453 -12.177,-6.203 -12.566,2.188 -36.464,32.243 -71.695,90.165 13.633,-6.687 30.592,-19.039 50.884,-37.065 23.709,-21.389 34.707,-37.024 32.988,-46.897 z m 76.383,143.916 c 0.365,2.097 -0.125,3.721 -1.462,4.879 -1.564,5.207 -10.735,10.965 -27.51,17.274 -12.995,5.037 -24.134,8.364 -33.405,9.978 -21.248,3.699 -32.697,0.765 -34.365,-8.814 -1.875,-10.771 2.68,-22.662 13.672,-35.673 10.847,-12.062 21.656,-19.03 32.428,-20.905 5.68,-0.989 9.23,2.554 10.637,10.633 1.094,6.283 0.296,10.584 -2.378,12.899 -4.019,3.474 -10.41,7.52 -19.16,12.122 -6.521,3.296 -13.035,6.59 -19.551,9.878 -2.275,2.867 -3.257,5.191 -2.945,6.986 0.105,0.603 0.33,1.026 0.683,1.268 8.309,3.488 17.856,4.29 28.626,2.414 19.747,-3.438 36.685,-11.473 50.828,-24.109 0.492,-0.7 1.036,-1.105 1.639,-1.21 1.191,-0.208 1.95,0.585 2.263,2.38 z m -52.397,-16.772 c -0.26,-1.493 -1.995,-2.579 -5.191,-3.258 -11.854,4.535 -18.537,12.172 -20.056,22.912 4.72,-2.975 9.619,-5.836 14.693,-8.569 7.505,-4.694 11.023,-8.392 10.554,-11.085 z m 272.286,-24.287 c 1.679,4.332 -7.575,12.265 -27.763,23.792 -18.849,10.377 -31.862,16.183 -39.043,17.433 -5.091,0.886 -7.942,-0.467 -8.567,-4.057 -0.573,-3.289 1.174,-9.604 5.255,-18.948 4.075,-9.336 5.88,-15.358 5.411,-18.051 l -1.366,-2.536 c -1.054,-0.741 -2.633,-0.929 -4.723,-0.565 -8.38,1.459 -20.131,10.983 -35.255,28.564 -15.13,17.59 -22.843,26.403 -23.138,26.455 -3.892,0.678 -6.066,-0.317 -6.53,-2.981 -0.309,-1.774 7.225,-15.144 22.611,-40.105 -3.665,-3.329 -7.444,-4.658 -11.328,-3.981 -6.585,1.146 -14.833,8.673 -24.739,22.572 -9.912,13.907 -16.66,21.165 -20.251,21.79 -2.097,0.365 -3.22,0.098 -3.376,-0.799 0.585,-1.951 3.49,-7.385 8.72,-16.315 4.095,-6.565 5.703,-12.394 4.816,-17.485 -1.145,-6.578 -5.912,-9.143 -14.285,-7.686 -9.873,1.719 -20.26,8.462 -31.159,20.222 -3.568,4.32 -6.473,9.299 -8.729,14.929 -2.255,5.638 -4.441,11.257 -6.544,16.861 -0.585,1.951 -2.378,3.188 -5.365,3.708 -4.186,0.729 -6.413,0.351 -6.674,-1.15 -0.104,-0.596 -0.08,-1.373 0.058,-2.322 2.665,-11.251 10.27,-24.215 22.823,-38.885 12.546,-14.669 24.057,-22.916 34.534,-24.74 11.065,-1.927 20.143,3.277 27.224,15.605 11.779,-13.762 21.111,-21.247 27.997,-22.446 7.181,-1.25 12.305,3.407 15.379,13.969 13.801,-11.03 26.086,-17.489 36.857,-19.364 9.27,-1.614 14.538,1.168 15.788,8.349 1.303,7.482 -1.939,18.993 -9.711,34.521 3.851,0.876 7.866,0.943 12.06,0.212 7.181,-1.25 16.732,-6.15 28.652,-14.699 11.921,-8.549 18.33,-12.902 19.228,-13.058 l 1.133,1.191 z m 133.916,-19.616 c 0.052,0.302 -0.049,0.63 -0.293,0.976 -5.783,7.495 -14.483,15.953 -26.093,25.373 -9.478,7.517 -18.932,15.174 -28.352,22.984 -21.424,18.541 -39.526,34.041 -54.301,46.49 -12.438,27.735 -31.295,69.072 -56.577,124.005 -12.751,25.94 -29.75,40.763 -51.005,44.463 -18.555,3.23 -28.666,0.056 -30.333,-9.516 -2.188,-12.566 10.624,-36.378 38.428,-71.426 18.208,-22.901 37.823,-44.813 58.84,-65.732 8.328,-8.848 19.065,-18.889 32.211,-30.115 9.87,-22.989 18.545,-41.297 26.04,-54.935 -10.749,5.571 -20.008,9.032 -27.785,10.386 -12.566,2.188 -19.656,-1.353 -21.272,-10.631 -0.938,-5.385 1.251,-14.473 6.581,-27.271 5.323,-12.79 10.077,-19.557 14.27,-20.287 4.186,-0.729 6.674,1.15 7.455,5.638 0.313,1.795 -2.574,6.922 -8.651,15.378 -6.085,8.458 -8.651,15.378 -7.714,20.764 0.73,4.193 4.236,5.736 10.519,4.642 11.963,-2.083 22.179,-5.401 30.634,-9.958 2.508,-5.061 5.196,-9.994 8.056,-14.812 3.844,-6.218 7.716,-9.667 11.608,-10.344 4.783,-0.833 7.416,0.096 7.884,2.789 0.209,1.199 -6.261,14.5 -19.409,39.909 -7.936,14.632 -15.691,29.392 -23.271,44.28 6.254,-4.788 39.252,-33.039 98.995,-84.746 2.093,-0.365 3.275,0.202 3.535,1.696 z m -123.364,101.473 c -14.725,7.802 -36.452,29.618 -65.168,65.447 -30.457,38.285 -44.539,64.008 -42.246,77.177 1.354,7.777 5.335,11.094 11.94,9.943 17.118,-2.979 48.94,-53.835 95.474,-152.567 z"
         inkscape:connector-curvature="0"
         style="fill:#7ab3a2" />
    </g>
  </g>
</svg>
